<?xml version="1.0" encoding="utf-8"?>
<!-- Generator: Adobe Illustrator 22.0.1, SVG Export Plug-In . SVG Version: 6.00 Build 0)  -->
<svg version="1.1" id="Layer_1" xmlns="http://www.w3.org/2000/svg" xmlns:xlink="http://www.w3.org/1999/xlink" x="0px" y="0px"
	 viewBox="0 0 2420 1280" style="enable-background:new 0 0 2420 1280;" xml:space="preserve">
<style type="text/css">
	.st0{display:none;opacity:0.7;fill:#104B56;}
	.st1{display:none;opacity:0.89;fill:#7CC0C0;enable-background:new    ;}
	.st2{fill:#BBBBBB;}
	.st3{fill:none;stroke:#000000;stroke-width:0.5;stroke-linecap:round;stroke-linejoin:round;stroke-miterlimit:10;}
	.st4{stroke:#000000;stroke-width:0.5;stroke-linecap:round;stroke-linejoin:round;stroke-miterlimit:10;}
	.st5{fill:none;stroke:#BBBBBB;stroke-width:0.5;stroke-linecap:round;stroke-linejoin:round;stroke-miterlimit:10;}
	.st6{fill:#224A55;stroke:#000000;stroke-width:0.5;stroke-linecap:round;stroke-linejoin:round;stroke-miterlimit:10;}
	.st7{fill:#BBBBBB;stroke:#000000;stroke-width:0.5;stroke-linecap:round;stroke-linejoin:round;stroke-miterlimit:10;}
	.st8{fill:#BCBCBC;stroke:#000000;stroke-width:0.5;stroke-linecap:round;stroke-linejoin:round;stroke-miterlimit:10;}
	
		.st9{fill:none;stroke:#000000;stroke-width:0.5;stroke-linecap:round;stroke-linejoin:round;stroke-miterlimit:10;stroke-dasharray:12;}
	.st10{fill:#224A55;stroke:#BBBBBB;stroke-width:0.5;stroke-linecap:round;stroke-linejoin:round;stroke-miterlimit:10;}
</style>
<image style="display:none;overflow:visible;" width="900" height="600" xlink:href="../../../../../../../../../Downloads/3-dublin-ireland-skyline-michael-tompsett.jpg"  transform="matrix(2.3089 0 0 2.3089 171 49)">
</image>
<rect x="236" y="100" class="st0" width="1932" height="1104"/>
<g>
	<rect x="-250" y="-378.1" class="st1" width="2893.1" height="1677.8"/>
	
		<image style="overflow:visible;" width="2366" height="1430" xlink:href="../../../../../../../../../Desktop/Screen Shot 2018-04-12 at 23.40.28.png"  transform="matrix(1.0912 0 0 1.0901 -81 -261)">
	</image>
</g>
<g>
	<g>
		<path class="st2" d="M478.8,1214.8c-1.3,0-1.3,1.9,0,1.9C480.1,1216.8,480.1,1214.8,478.8,1214.8z"/>
		<path class="st2" d="M469,1207.8c-0.1-0.2-0.3-0.4-0.6-0.4c0-0.1-0.1-0.2-0.2-0.3c-0.4-0.4-1-0.3-1.4,0c-0.2,0.2-0.4,0.4-0.5,0.7
			c-0.1,0.1-0.1,0.1-0.2,0.2c-0.5,0.6-0.2,1.6,0.5,2c0.2,0.1,0.3,0.1,0.5,0.1c0.2,0.1,0.5,0.1,0.7,0.1c0.2,0,0.5-0.1,0.7-0.3
			c0.2-0.1,0.3-0.2,0.5-0.4C469.3,1209,469.3,1208.4,469,1207.8z"/>
		<path class="st2" d="M478.3,1214.7c0.2-0.3,0.2-0.8-0.1-1.1c0.3-0.4,0.2-1.1-0.2-1.4c0.2-0.4,0.1-1-0.4-1.3c0-0.6-0.2-1.2-0.9-1.3
			c0-0.1,0-0.1,0-0.2c-0.1-0.4-0.3-0.8-0.6-1.2c-0.3-0.3-0.7-0.6-1.1-0.7c-0.2,0-0.3-0.1-0.5,0c0,0,0,0,0,0c0,0,0,0,0,0c0,0,0,0,0,0
			c-0.1-0.1-0.2-0.2-0.3-0.2c-0.1,0-0.2-0.1-0.3-0.1c-0.2-0.1-0.3-0.1-0.5,0c-0.1,0-0.2,0-0.3,0.1c-0.1,0-0.2,0.1-0.3,0.2
			c-0.1,0.1-0.2,0.1-0.2,0.2c-0.1,0.1-0.2,0.3-0.2,0.4c-0.1,0.5,0,1,0.4,1.4c0.3,0.3,0.7,0.5,1.1,0.5c0,0,0.1,0,0.1,0
			c0.1,0,0.1,0,0.2,0c0,0,0.1,0,0.1,0c0,0,0,0.1,0,0.1c0,0.3,0.3,0.6,0.6,0.7c0.1,0.1,0.2,0.1,0.3,0.1c0.1,0.5,0.4,1,1,1.1
			c0,0.2,0.2,0.4,0.3,0.5c-0.1,0.3,0.1,0.7,0.3,1c-0.2,0.3,0,0.6,0.2,0.9c-0.3,0.6-0.3,0.7,0.5,0.7
			C478.5,1215.2,478.6,1215.3,478.3,1214.7z"/>
		<path class="st2" d="M471.4,1207.3c-0.1-0.4-0.4-0.7-0.9-0.7c-0.1,0-0.2,0-0.3,0c-0.1,0-0.2,0-0.3,0c-1.2,0-1.3,1.9-0.1,1.9
			c0,0,0,0,0,0c0,0,0,0.1,0,0.1c0,0,0,0.1,0,0.1c-0.4,0.1-0.7,0.5-0.7,0.9c0,0-0.1,0.1-0.1,0.1c-0.6,0.3-0.5,1.4,0.3,1.5
			c0.1,0.1,0.3,0.1,0.4,0.1c0.4,0,0.7-0.2,0.8-0.5c0.6,0,0.9-0.5,0.9-1c0.4-0.3,0.4-0.8,0.3-1.2
			C472.1,1208.2,472,1207.5,471.4,1207.3z"/>
		<path class="st2" d="M440.6,1232.3c-1.1-1.6-2.7-6.7-3.4-8.5c-0.4-1.2-1.4-0.7-0.3,2.7c0.6,1.9,1,3.9,2.2,5.5
			C439.6,1232.7,441,1233,440.6,1232.3z"/>
		<path class="st2" d="M457.7,1255.6c-0.1-0.3-0.2-0.7-0.5-0.8c-0.1-0.8-0.7-1.5-1.7-1.5c-0.6,0-1,0.2-1.3,0.6
			c-0.7,0.6-0.8,1.7-0.3,2.5c0.1,0.2,0.2,0.5,0.3,0.7c0,0.9,0.6,1.8,1.7,1.8c0,0,0.1,0,0.1,0c0.2,0.1,0.5,0.2,0.8,0.2
			C458.7,1258.9,459,1256.4,457.7,1255.6z"/>
		<path class="st2" d="M423.6,1249.9c-0.9,0-0.9,1.4,0,1.4C424.5,1251.4,424.5,1249.9,423.6,1249.9z"/>
		<path class="st2" d="M449.2,1251.1c-0.5-1.4-1.1-2.9-1.9-4.2c-0.1-0.1-0.2-0.2-0.3-0.3c0.1-0.3,0.1-0.6-0.1-0.9
			c-0.3-0.4-0.5-0.8-0.8-1.3c0-0.5-0.1-0.9-0.3-1.4c-1.4-3.1-3-6.2-4.2-9.4c0,0,0-0.1,0-0.1c0-0.5-0.4-1-1.1-1
			c-0.4,0-0.7,0.2-0.9,0.4c-0.8,0.3-0.9,1.6-0.1,2.1c-0.8,0.1-1.3,0.5-2.1,0.6c-0.4,0.1-0.7,0.2-1,0.3c-0.8,0-1.6,0.3-1.8,1.1
			c-0.9,0.3-1.2,1.3-2.2,1.4c-0.4,0.1-0.6,0.4-0.5,0.7c-0.3,0.2-0.5,0.4-0.8,0.6c-0.1,0.1-0.1,0.1-0.2,0.2c0,0-0.1,0.1-0.1,0.1
			c-1.4,1.5-2.8,3-4.1,4.6c-0.2,0.3-0.5,0.6-0.7,0.9c-0.2-0.1-0.5-0.1-0.7,0.2c-0.5,0.6-1.6,1.5-1.7,2.4c0,0,0,0,0,0
			c-0.3,0.1-0.7,0.2-0.8,0.2c-0.4,0.2-0.7,0.5-1,0.9c-0.2,0.3-0.1,0.7,0.1,0.9c-0.1,0.1-0.2,0.2-0.2,0.3c-0.3-0.2-0.7-0.2-1,0.2
			c-0.5,0.9-1.5,1.5-2.1,2.3c-0.4,0.6,0.2,1.1,0.8,1c0,0,0,0,0,0.1c0,0.5,0.2,0.8,0.6,1.2c0,0,0.1,0.1,0.1,0.1
			c0.1,0.2,0.2,0.4,0.4,0.6c-0.1,0.3,0.2,0.7,0.5,0.8c0.3,0.1,0.6,0,0.7-0.2c0,0,0,0,0.1,0c6.2,0.4,12.5,1.3,18.7,1.1
			c1,0.1,2,0.2,3,0.3c0.8,0.1,1.4-0.5,1.7-1.2c1.1-0.8,0.8-3.1-1.1-3.3c-2.6-0.2-5.1-0.1-7.7,0.1c-0.1,0-0.3,0-0.4,0.1
			c-2.5-0.2-5.1-0.4-7.6-0.5c-0.5,0-1,0.2-1.2,0.5c-0.7-0.1-1.5-0.1-2.2-0.2c0-0.1-0.1-0.1-0.1-0.2c-0.4-0.4-0.7-0.8-0.9-1.3
			c-0.1-0.3-0.3-0.4-0.5-0.5c0,0,0,0,0,0c0.2-0.2,0.2-0.5,0.1-0.8c0.2,0,0.3,0,0.5-0.2c1.6-1,2.7-2.4,3.8-3.9
			c1.4-1.7,2.8-3.3,4.3-4.9c0.2-0.3,0.3-0.6,0.3-0.8c0.2-0.1,0.3-0.3,0.5-0.5c0.3-0.2,0.6-0.4,0.9-0.7c0.2-0.2,0.2-0.4,0.2-0.5
			c0.1-0.1,0.1-0.1,0.2-0.2c0.1,0.1,0.2,0.1,0.4,0.1c0.4,0,0.7-0.3,0.7-0.7c0.1,0,0.5,0.1,0.6,0.2c0.2,0.2,0.5-0.4,1.1-0.5
			c0.8-0.2,1.4-0.5,2.1-1.1c0,0,0,0,0.1,0.1c0.2,0.2,0.4,0.3,0.7,0.3c0.1,0,0.2,0,0.3-0.1c0,0.1-0.2,0.2-0.1,0.3
			c-0.1,0.3,0,0.9,0.4,1.1c0.6,1.4,1.4,2.7,2.2,4c0,0.2,0,0.5,0.2,0.8c0.1,0.2,0.3,0.5,0.4,0.7c0.6,1.2,0.8,2.5,1.2,3.8
			c0.5,1.3,1.2,2.3,2,3.4c0,0.1,0,0.3,0,0.4c0,0.4,0.4,0.6,0.8,0.6c0.3,0.3,0.8,0.4,1.2,0.3C449.1,1252.3,449.4,1251.7,449.2,1251.1
			z M421.6,1252.9c-0.1,0.1-0.1,0.2-0.2,0.2c-0.2,0.1-0.4,0.2-0.6,0.4c-0.1-0.1-0.3-0.2-0.4-0.2c0,0,0,0,0,0c0.3-0.3,0.6-0.6,1-0.9
			c0.4,0.2,1,0,1-0.6c0,0,0-0.1,0-0.1l0.2,0.3c0,0.1,0.1,0.1,0.1,0.1C422.1,1252.3,421.8,1252.5,421.6,1252.9z"/>
		<path class="st2" d="M495.4,1255.5c0-0.5-0.2-1.1-0.7-1.3c-2.2-5.7-4.6-11.4-7-17.1c0,0,0-0.1-0.1-0.1c0.2-0.5,0.2-1-0.1-1.6
			c-1.9-3.6-3.5-7.3-4.9-11.1c-0.1-0.3-0.3-0.6-0.5-0.8c0-0.1,0-0.1,0-0.2c0.1-0.6-0.2-1.1-0.7-1.4c0-0.4-0.1-0.7-0.3-1
			c0-0.3,0-0.7-0.2-1c0-0.6-0.3-1.2-0.9-1.5c-0.1-0.5-0.3-1-0.4-1.5c-0.6-2.1-3.7-1.4-3.7,0.5c0,0-0.1,0.1-0.1,0.1c0,0-0.1,0-0.1,0
			c-1.5,0.3-1.8,2.3-0.8,3.2c0.1,0.5,0.2,0.9,0.3,1.4c0.1,0.2,0.2,0.5,0.4,0.9c-0.3,0.4-0.4,1-0.2,1.5c-0.1,0.3-0.2,0.7-0.3,1
			c-1.5,1.7-2.5,3.8-3.4,5.8c-1.1,1.5-2.2,3-3.1,4.7c-0.1,0.2-0.2,0.5-0.3,0.8c-1.3,1.8-2.6,3.7-3.8,5.6c-0.9,1-1.9,2.1-2.5,3.3
			c-0.3,0.6-0.5,1.5-0.8,2c-0.1,0.3-0.3,0.5-0.5,0.8c-0.2,0.3-0.2,0.3-0.3,0.4c-0.8,1-1.7,1.9-2.5,2.9c-0.1,0-0.2,0-0.3,0
			c-0.5,0-0.9,0.2-1.2,0.5c-1.2,0.4-1.3,2.2-0.3,2.9c0,0.1,0,0.2-0.1,0.3c-0.1,0.8,0,1.5,0.6,2.2c0.5,0.5,1.4,0.9,2.2,0.6
			c3.4-1.4,5.9-3.8,7.7-7c0.8-1.5,1.9-2.8,2.8-4.2c1-1.6,1.5-3.5,2-5.3c0.1,0,0.1-0.1,0.2-0.1c1.2-1,1.7-2.5,2.3-3.9
			c0.1-0.3,0.2-0.6,0.4-0.9c0.4-0.2,0.8-0.5,1-0.9c0.5-1.1,1.1-2.1,1.7-3.1c0.2-0.2,0.5-0.4,0.7-0.7c0.2-0.3,0.4-0.5,0.6-0.7
			c0.1,0.5,0.3,1,0.7,1.3c-0.1,1,0.5,2,1.8,2c0.3,0,0.6-0.1,0.9-0.2c0.3,0.2,0.6,0.3,1,0.3c0.2,0,0.3,0,0.4,0
			c0.4,0.9,0.9,1.8,1.3,2.6c0.1,0.2,0.3,0.4,0.4,0.5c0,0.3,0.1,0.6,0.2,0.9c2.7,6.3,5.3,12.6,7.8,19c0.6,1.6,3.1,1.5,3.1-0.4
			c0-0.2,0-0.4,0-0.6C495.9,1256.2,495.7,1255.8,495.4,1255.5z"/>
		<path class="st2" d="M449,1251.6c-0.3-0.1-0.7-0.1-1-0.2c0-0.2-0.1-0.3-0.2-0.5c-0.2-0.5-0.9-0.7-1.3-0.2c-0.3,0.4-0.2,1,0.1,1.4
			c0,0,0,0,0,0.1c-0.1,0.4,0.1,0.8,0.5,0.9c0.3,0.1,0.6,0,0.8-0.2c0.2,0,0.5,0.1,0.7,0.2c0.4,0.1,0.8-0.1,0.9-0.5
			C449.6,1252.1,449.4,1251.7,449,1251.6z"/>
		<path class="st2" d="M444.1,1259.1c-0.4,0-0.7,0.3-0.7,0.7v0.6c0,0.4,0.3,0.7,0.7,0.7c0.4,0,0.7-0.3,0.7-0.7v-0.6
			C444.8,1259.4,444.5,1259,444.1,1259.1z"/>
		<path class="st2" d="M456.5,1256.5c0.1-0.2,0-0.5-0.2-0.7c-0.2-0.4-0.4-0.8-0.6-1.1c0.1,0,0.1-0.1,0.2-0.1c0.7-0.5,0-1.8-0.7-1.2
			c-0.1,0.1-0.3,0.2-0.4,0.2c-0.1,0-0.2-0.1-0.3-0.1c-0.4-0.2-0.8,0-1,0.3c-0.1,0-0.3,0-0.4,0c-0.9,0-1.8-0.1-2.8-0.1
			c-1.8-0.1-3.7-0.2-5.5-0.3c-0.9,0-0.9,1.4,0,1.4l6.2,0.3c0.9,0,1.9,0.2,2.8,0.1c0.2,0.3,0.4,0.6,0.6,0.9c0.5,0.7,0.7,1.4,0.7,2.2
			c0,0.9,1.3,0.9,1.4,0C456.7,1257.6,456.7,1257.1,456.5,1256.5z"/>
		<ellipse class="st3" cx="467.5" cy="1208.6" rx="2" ry="1.8"/>
		<path class="st2" d="M456.5,1257.9c-0.2-0.4-0.4-0.8-0.6-1.1c0.1-0.5-0.2-1.1-0.5-1.7c0.1,0,0.1-0.1,0.2-0.1
			c0.8-0.5,0-1.7-0.7-1.2c0,0,0,0-0.1,0c-0.1-0.1-0.3-0.2-0.5-0.2c-0.1,0-0.1,0-0.1,0c-0.3-0.3-0.7-0.5-1.2-0.4
			c-0.9,0-1.7,0.2-2.6,0.3c-0.9,0-1.7,0-2.6,0c-0.6,0-1.3-0.2-1.9,0c-0.2,0.1-0.3,0.2-0.4,0.3c-0.1,0-0.3,0-0.4,0.1
			c-0.1,0-0.1,0-0.2,0.1c-0.4,0.1-0.7,0.5-0.7,0.9c0,0,0,0.1-0.1,0.1c-0.3,0.2-0.4,0.5-0.5,0.8c-0.5,1.1-0.7,2.3-0.6,3.6
			c0.1,0.4,0.3,0.7,0.6,0.9c0,0.3,0,0.6,0.1,0.9c-0.5,2.8,3.6,4.8,5.9,5.2c0.2,0,0.4,0,0.5-0.1c0.1,0,0.2,0.1,0.3,0.1
			c1,0,1.9-0.2,2.8-0.4c0.4-0.1,0.5-0.5,0.5-0.8c0,0,0,0,0.1-0.1c0.2-0.2,0.4-0.4,0.6-0.7c0.2,0,0.4-0.1,0.6-0.3
			c0.8-1.5,1.1-3.2,0.8-4.9C456.3,1258.9,456.7,1258.4,456.5,1257.9z M454.4,1258.7c0,1.3-0.1,2.7-0.7,3.9c-0.5,0.5-0.9,0.9-1.6,1.2
			c-0.5,0.3-1,0.4-1.5,0.8c-0.1,0-0.1,0-0.2,0c-0.1,0-0.3,0.1-0.4,0.1c0,0-0.1,0-0.1,0c-1-0.2-2-0.6-2.9-1.1c-0.6-0.4-1.7-1.2-1.9-2
			c0.1-0.1,0.1-0.3,0.1-0.4c0-0.2-0.1-0.4-0.2-0.6c-0.1-0.3-0.1-0.5-0.1-0.8c0,0,0-0.1,0-0.1c0.1-0.2,0.1-0.3,0.1-0.6
			c0-0.4-0.1-0.8,0-1.1c0.2-0.1,0.3-0.2,0.4-0.5c0.1-0.4,0.6-0.5,0.9-0.7c0.3-0.2,0.5-0.4,0.8-0.6c0.7-0.8,1.9-0.8,2.9-0.8
			c0.3,0,0.8,0,1.2,0c0,0.1,0.1,0.2,0.2,0.3c0.4,0.4,0.9,0.8,1.4,1.1c0.3,0.2,0.6,0.3,0.9,0.5c0.2,0.4,0.4,0.8,0.5,1.2
			c0,0.1,0.1,0.1,0.1,0.1C454.4,1258.6,454.4,1258.6,454.4,1258.7z"/>
		<path class="st2" d="M456.9,1258c-0.4-1.2-0.7-2.5-1.4-3.6c0.2,0,0.3,0,0.5-0.1c0.9-0.3,0.5-1.6-0.4-1.4c-0.4,0.1-0.7,0.1-1,0.3
			c0,0-0.1,0-0.1,0.1c-0.3-0.2-0.7-0.1-0.9,0.2c-0.3,0-0.7,0.1-0.8,0.5c-0.1,0.3,0.1,0.8,0.5,0.9c0.3,0,0.6,0.1,0.8,0
			c0.7,0.9,1,2.5,1.3,3.4C455.8,1259.3,457.2,1258.9,456.9,1258z"/>
		<g>
			<path class="st3" d="M475.8,1224.2l-14.4,23.1c0,0-3.3,7.3-10.5,5.8l-25.4,0.2l-1.5-1.9l9.7-11c0,0,1.9-2,6.2-3.3l6.8,15.6"/>
			<line class="st3" x1="449.7" y1="1252.9" x2="441.3" y2="1232.2"/>
			<line class="st3" x1="439.5" y1="1232.7" x2="436" y2="1224.4"/>
			<line class="st3" x1="440.7" y1="1232.2" x2="437.2" y2="1223.9"/>
			<path class="st4" d="M435.6,1224.5c0,0,0.8-0.7,2.1-1c0,0-0.1-3.3,6.5-3c0,0,2-4.3-4.3-2.9c-1.9,0.4-3.1,1.9-7.8-0.9
				c0,0-3.2-1.8-3.8,1.9c0,0-0.6,2.7,4.1,2.4L435.6,1224.5z"/>
			<path class="st5" d="M434.8,1225.4"/>
			<line class="st3" x1="442.6" y1="1231.6" x2="437.3" y2="1233.7"/>
			<path class="st3" d="M404.4,1241.3c-0.9,1-7.1,8.6-5.6,18.6c0.1,0.9,1.9,11.7,12.1,16.8c7.7,3.8,16.6,2.6,23-2
				c6.6-4.8,8.7-12.1,9.2-14"/>
			<path class="st3" d="M405.7,1242.4c-0.8,0.9-6.3,8.2-5,17.3c1.6,10.8,11.3,15.3,11.8,15.5c6.9,3,14.5,1.9,20.1-2.1
				c6.1-4.4,7.8-13.1,8.2-14.8"/>
			<path class="st3" d="M407.2,1243.7c-0.8,0.9-5.7,7.5-4.4,15.7c0.2,1,1.7,9.7,9.9,13.7c6.5,3.2,14,1.8,19.1-2.1
				c5.3-4.1,6.6-11,6.9-12.6"/>
			<path class="st3" d="M471.5,1258.5c1.1,8.3,7.6,16.7,15.3,19.6c8.3,3,17.8,0.7,23.9-5.9c1.1-1.2,5.8-6.3,6.1-14.4
				c0.2-8.1-4.7-13.9-5.8-15.1c0.7,0.3-7.8-10.6-22-7.3"/>
			<path class="st3" d="M473.5,1257.5c1,7.5,6.8,15.6,13.8,18.1c7.5,2.7,16.1,0.7,21.6-5.3c1-1,5.2-5.7,5.5-13
				c0.2-7.3-3.8-12.2-4.7-13.3c0,0-8.6-9.9-19.7-7.2"/>
			<path class="st3" d="M490.6,1239.3c9.8-2.4,17.5,6.3,17.5,6.3c0.8,1,4.4,5.3,4.2,11.8c-0.2,6.5-4,10.5-4.9,11.5
				c-5,5.3-12.6,7.1-19.2,4.7c-6.2-2.2-10.7-7.8-11.6-14.4c0,0-2.9-9.4,8-17.8"/>
			<path class="st6" d="M484.6,1239.1c-11.3,7-10.6,17.7-10.6,17.7l-3.8,2.4c0,0-0.5-15.3,13.2-23.8"/>
			<polyline class="st6" points="486.8,1233.8 488.3,1233.5 489.7,1237.1 488.3,1237.6 			"/>
			<circle class="st7" cx="449.7" cy="1259.7" r="4.5"/>
			<path class="st4" d="M452.5,1268.1c-1.6-2.8-4.4-7.9-3.4-9c0.5-0.6,0.9-0.5,0.9-0.5c0.4,0.1,0.6,0.6,0.8,0.9
				c0.8,2,2.7,6.3,3.7,8.4c0,0.1,0.1,0.2,0.1,0.2"/>
			<path class="st4" d="M455.5,1270.8h-3.8c-0.7,0-1.2-0.6-1.2-1.2l0,0c0-0.7,0.6-1.2,1.2-1.2h3.8c0.7,0,1.2,0.6,1.2,1.2l0,0
				C456.7,1270.2,456.2,1270.8,455.5,1270.8z"/>
			<path class="st8" d="M481.8,1221.1l7.1,0.3c1,0,1.6-0.4,1.9-0.6c1.4-1,1.1-9.2,1.3-11c0.1-0.1,0.6-0.9,1.1-0.8
				c0.3,0.1,0.5,0.5,0.7,0.8c1,2.6,1,10.4,0.4,11.6c-0.8,1.5-2.5,2.5-4.4,2.4c-2.4,0-4.7-0.1-7.1-0.1"/>
			<path class="st3" d="M477.3,1215.5c0,0-0.5-5.6-5.1-6c0,0-1.6,3.1-4.3,0.9"/>
			<path class="st3" d="M478.8,1214.3c0,0-0.6-7.8-6.2-7l-0.3,2.3c0,0,0.9-4.2-4-2.7"/>
			<line class="st5" x1="477.5" y1="1220.7" x2="477.9" y2="1220.6"/>
			<line class="st5" x1="479.1" y1="1220" x2="479.8" y2="1219.6"/>
			<line class="st5" x1="478" y1="1222" x2="478" y2="1222.5"/>
			<line class="st5" x1="476.1" y1="1221.3" x2="476.7" y2="1221"/>
			<line class="st5" x1="478.9" y1="1224.3" x2="478.6" y2="1223.5"/>
			<line class="st5" x1="478.3" y1="1222.8" x2="478" y2="1222"/>
			<line class="st5" x1="479.6" y1="1226" x2="479.3" y2="1225.2"/>
			<line class="st5" x1="480.3" y1="1227.5" x2="479.9" y2="1226.7"/>
			<line class="st5" x1="480.8" y1="1229" x2="480.5" y2="1228.2"/>
			<line class="st5" x1="481.5" y1="1230.6" x2="481.2" y2="1229.8"/>
			<path class="st6" d="M434.2,1236.8c-2.4-3.6-17.2-10.2-30.3,3.2l5.9,5.6c0,0,2.7-1,6.9-0.8c2.3,0.1,6.2,0.8,7.9,1.5"/>
			<path class="st3" d="M438.7,1233.2l0.8,1.7c0,0-4.4,0.7-7.8,4.1c-3.3,3.4-13,14.2-13,14.2l2.2,3.7l21.9,1.2
				c0.2,3.6,2,6.6,4.7,7.8c1.2,0.5,2.3,0.6,3.2,0.5c0.5,0,2.4-0.3,3.9-1.9c2-2.1,1.6-4.9,1.6-5.3c0,0,4.6-0.6,8-5.1
				s5.9-8.8,6.8-10.9c0.9-2.1,4.9-9.1,7.2-11.5l1.3,2.7l3.5-0.2l8.9,22.1c0,0,0.8,3.3,2.7,2.6s1.4-2.5,0.8-3.8
				c-0.7-1.3-16.7-40.8-16.7-40.8l-4.6,4.4l1.6,5.7"/>
			<path class="st6" d="M431.1,1253c-0.1-0.5-4.2-4.9-4.2-4.9s8-9.7,8.8-9.4c6.5,2.7,8.2,14.3,8.2,14.1"/>
			<line class="st3" x1="445.1" y1="1264.2" x2="423.6" y2="1257.5"/>
			<path class="st3" d="M423.6,1257.4c0.6,0-3.9,4.4-5.7,0.3c-0.4-0.9-0.5-2.9,0.6-4.2"/>
			<path class="st9" d="M405.5,1240.9c0,0,12.7-11.5,26.6-2.9"/>
			<path class="st9" d="M435.3,1240.3c0,0,6.6,5.5,7.1,12.6"/>
			<polyline class="st3" points="421.5,1250.4 422.3,1251.8 420.8,1253.6 419.5,1253.8 			"/>
			<polyline class="st9" points="414.2,1244.9 418.1,1251.4 418.7,1252.3 			"/>
			<line class="st9" x1="405.4" y1="1247.4" x2="417.8" y2="1254.5"/>
			<line class="st9" x1="403" y1="1256.4" x2="417.5" y2="1256.8"/>
			<line class="st9" x1="421.5" y1="1249.7" x2="421" y2="1245.8"/>
			<line class="st9" x1="429.9" y1="1271.7" x2="421.6" y2="1259.8"/>
			<line class="st9" x1="420.8" y1="1274.6" x2="420.6" y2="1260"/>
			<line class="st9" x1="419.2" y1="1259.7" x2="411.9" y2="1272"/>
			<line class="st9" x1="417.6" y1="1258.1" x2="405.6" y2="1265.4"/>
			<line class="st9" x1="423.8" y1="1258.8" x2="436.1" y2="1265.5"/>
			<line class="st9" x1="494.2" y1="1239.2" x2="494" y2="1251.3"/>
			<line class="st9" x1="502.7" y1="1241.8" x2="495.9" y2="1253.8"/>
			<line class="st9" x1="509.6" y1="1248" x2="497.4" y2="1254.7"/>
			<line class="st9" x1="512" y1="1256.4" x2="497.5" y2="1256.7"/>
			<line class="st9" x1="509.3" y1="1265.8" x2="497.2" y2="1258.6"/>
			<line class="st9" x1="502.6" y1="1271.9" x2="495.7" y2="1259.9"/>
			<line class="st9" x1="493.8" y1="1273.9" x2="493.8" y2="1260.3"/>
			<line class="st9" x1="485.3" y1="1271.6" x2="492.2" y2="1259.8"/>
			<line class="st9" x1="478.7" y1="1265.1" x2="491" y2="1258.3"/>
			<line class="st9" x1="476.6" y1="1256.6" x2="490.2" y2="1256.6"/>
			<line class="st9" x1="490.9" y1="1254.5" x2="478.8" y2="1247.5"/>
			<path class="st3" d="M494.9,1252.9c-0.2,0.1,2.5,0.4,2.7,3.8c0.2,4.9-7.7,4.8-6.7-1.8"/>
			<path class="st10" d="M424.5,1251.1"/>
		</g>
	</g>
	<path d="M443.2,1260.4c-0.2-0.8-0.5-1.5-0.8-2.2c-0.2-0.5-1-0.4-1.2,0c-0.7,1.4-0.8,3-1.3,4.5c-0.3,0.8-0.6,1.6-1,2.4
		c-0.1,0.1-0.3,0.2-0.3,0.4c0,0.1-0.1,0.3-0.1,0.4c-0.2,0.4-0.5,0.8-0.8,1.2c-0.2,0.3-0.1,0.5,0,0.7c-0.3,0.5-0.7,1-1.3,1.4
		c-0.3,0.3-0.4,0.7-0.2,1c-0.1,0.1-0.2,0.1-0.3,0.2c-0.1,0.1-0.3,0.1-0.4,0.2c-0.4,0.2-0.4,0.5-0.3,0.8c-1.4,1.4-2.9,2.6-4.8,3.2
		c0,0-0.1,0-0.1,0c0,0,0,0,0,0c0,0,0,0,0,0c-0.1,0-0.1,0-0.2,0.1c-0.2,0.1-0.3,0.3-0.3,0.5c0,0-0.1,0-0.1,0c-0.4,0-0.7,0.1-1.1,0.2
		c-0.2,0.1-0.3,0.3-0.3,0.5c-1,0.3-2,0.5-3,0.5c-0.3,0-0.5,0.2-0.6,0.5c-0.3,0-0.6,0-0.9,0c-0.3,0-0.5,0.1-0.6,0.3
		c-1.2,0-2.3-0.1-3.5-0.1c-0.2,0-0.4,0.1-0.5,0.2c-0.2,0-0.5-0.1-0.7-0.1c-0.1,0-0.2,0-0.4,0c-0.1,0-0.2,0-0.2,0
		c-0.1-0.2-0.3-0.4-0.6-0.4c-1.7-0.1-3.3-0.7-4.8-1.7c-0.3-0.2-0.6-0.1-0.8,0.1c-0.2-0.2-0.4-0.4-0.6-0.6c-0.2-0.2-0.5-0.3-0.8-0.1
		c-0.1-0.1-0.2-0.2-0.3-0.3c-0.3-0.2-0.6-0.4-0.9-0.5c-0.4-0.5-0.9-1-1.3-1.4c-0.2-0.2-0.3-0.2-0.5-0.2c0,0,0-0.1-0.1-0.2
		c-0.1-0.4-0.5-0.5-0.8-0.5c-0.3-0.4-0.7-0.8-1-1.3c-0.2-0.4-0.4-0.7-0.6-1.1c-0.1-0.2-0.3-0.3-0.5-0.3c-0.3-0.5-0.7-1-1.1-1.4
		c-0.1-0.1-0.2-0.1-0.3-0.2c-0.4-0.7-0.7-1.3-0.9-2.1c-0.1-0.2-0.1-0.3-0.3-0.4c-0.5-1.5-1-3.1-1.4-4.6c0.1-0.2,0.2-0.4,0.2-0.6
		c-0.4-1.6-0.4-3.3-0.2-5c0-0.1,0.1-0.1,0.1-0.2c0.2-0.6,0.3-1.3,0.4-2c0.3-0.4,0.3-0.9,0.4-1.4c0.1-0.4,0.2-0.8,0.3-1.1
		c0.2,0,0.4-0.1,0.5-0.3c0.4-0.8,0.6-1.6,0.7-2.4c0.1,0,0.1-0.1,0.1-0.1c0.6-0.7,0.9-1.4,1-2.2c0,0,0,0,0,0c0,0,0,0,0,0c0,0,0,0,0,0
		c0.4-0.4,0.9-0.8,1-1.4c0,0,0,0,0,0c0.8,0,0.9-1,0.3-1.3c-0.2-0.5-1.1-0.6-1.4,0.1c-0.1,0.2-0.2,0.5-0.3,0.7
		c-0.3,0.4-0.6,0.8-0.8,1.1c0,0-0.1,0.1-0.1,0.1c0,0,0,0,0,0c-0.3,0.3-0.5,0.6-0.6,0.9c-0.1,0.1-0.3,0.1-0.3,0.3
		c-0.4,0.7-0.9,1.4-1.3,2.1c-0.2,0.3-0.1,0.7,0.1,0.9c-0.2,0.5-0.5,1-0.6,1.6c-0.1,0.3-0.2,0.6-0.2,0.9c0,0.1,0,0.3,0,0.5
		c0,0,0,0,0,0c0,0,0,0-0.1,0.1c-0.3,0.2-0.4,0.5-0.3,0.8c0,0,0,0.1,0,0.1c0,0.1,0,0.2,0,0.3c-0.1,0.1-0.1,0.2-0.2,0.3
		c-0.1,0.3-0.1,0.6-0.2,0.8c-0.3,1.6-0.3,3.1-0.1,4.7c-0.2,0.1-0.4,0.4-0.3,0.7c0.5,2.2,1.2,4.4,1.9,6.6c0.1,0.2,0.1,0.3,0.3,0.4
		c0.6,1.6,1.7,2.9,2.2,4.5c0.2,0.5,0.7,0.6,1.1,0.4c0.1,0.3,0.3,0.5,0.4,0.8c0.1,0.2,0.2,0.3,0.4,0.3c0.5,0.6,0.9,1.1,1.4,1.7
		c0.1,0.1,0.3,0.2,0.5,0.2c0.2,0.2,0.4,0.3,0.6,0.5c0.1,0.1,0.2,0.1,0.2,0.1c0,0.1,0,0.1,0.1,0.2c0.3,0.5,0.6,0.7,1.2,0.9
		c0.1,0,0.2,0,0.3,0c0.2,0.2,0.3,0.4,0.5,0.5c0.4,0.4,0.9,0.7,1.4,0.8c0,0,0,0,0,0c0.4,0.3,0.8,0.6,1.3,0.9c0.3,0.2,0.7,0.1,0.9-0.2
		c0.5,0.2,1.1,0.4,1.7,0.6c0.1,0.2,0.2,0.3,0.5,0.3c1.2,0.2,2.3,0.4,3.5,0.6c0.1,0,0.3,0,0.4,0c0.3,0,0.5,0.1,0.8,0.1
		c0.4,0.1,0.9,0.1,1.3,0c0.2,0,0.3-0.1,0.4-0.2c0.8,0,1.5,0.1,2.3,0.1c0.3,0,0.5-0.1,0.6-0.3c0.7,0,1.4-0.1,2.1-0.2
		c0.2,0,0.4-0.2,0.5-0.5c1-0.2,2-0.5,2.9-1c0.1-0.1,0.2-0.1,0.3-0.2c0.3-0.1,0.7-0.3,1-0.4c0.2-0.1,0.3-0.3,0.3-0.5
		c2.2-1,3.9-2.7,5.6-4.4c0.1-0.1,0.2-0.3,0.2-0.4c0.1-0.1,0.1-0.2,0.2-0.3c0.2,0,0.4-0.2,0.5-0.5c0.1-0.2,0.1-0.3,0.2-0.5
		c0.2,0,0.3-0.1,0.4-0.3c0.1-0.1,0.1-0.3,0.2-0.4c1.2-0.6,1.6-2.4,2-3.5c0.1-0.1,0.1-0.3,0-0.4c0.1-0.1,0.2-0.3,0.3-0.4
		c0.3-0.2,0.3-0.5,0.2-0.7c0.3-0.5,0.5-0.9,0.8-1.4c0.1-0.3,0.1-0.6-0.1-0.7c0.1-0.2,0.3-0.3,0.5-0.5
		C443.2,1260.9,443.2,1260.6,443.2,1260.4z"/>
	<path d="M516.5,1257.1c0.2-1.4,0.1-2.8-0.2-4.2c-0.3-1.4-1-2.6-1.6-3.9c-0.1-0.8-0.4-1.6-0.8-2.3c-0.1-0.2-0.3-0.3-0.5-0.3
		c-0.1-0.4-0.2-0.8-0.3-1.2c-0.1-0.4-0.5-0.6-0.8-0.5c-0.3-0.5-0.5-0.9-0.8-1.4c-0.4-0.8-0.9-1.6-1.5-2.3c-0.2-0.2-0.5-0.3-0.7-0.2
		c-0.5-1-1.4-1.6-2.4-2c-0.1,0-0.2,0-0.3,0c0,0,0,0,0,0c-0.6-0.5-1.2-0.9-1.9-1.2c-0.6-0.6-1.4-1-2.2-1.1c-0.5-0.2-0.9-0.4-1.4-0.6
		c-0.1-0.1-0.2-0.3-0.4-0.3c-0.6-0.2-1.3-0.3-1.9-0.4c-0.1-0.1-0.2-0.2-0.4-0.3c-2.9-0.5-5.8-0.4-8.6,0.4c-0.9,0.2-0.5,1.6,0.4,1.4
		c1.9-0.5,3.8-0.7,5.7-0.6c0.1,0.2,0.3,0.4,0.6,0.4c0.6,0,1.1,0,1.6,0.1c0.1,0.3,0.3,0.6,0.7,0.6c0.7,0,1.4,0,2,0.2
		c0,0.2,0.1,0.3,0.4,0.4c0.4,0.2,0.8,0.3,1.2,0.3c0.1,0.2,0.2,0.4,0.5,0.5c0.4,0.1,0.7,0.2,1.1,0.3c0,0.2,0.1,0.4,0.3,0.5
		c0.8,0.5,1.6,1,2.4,1.5c0.3,0.7,1,1,1.6,1.5c0.9,0.6,1.7,1.5,2.4,2.4c0.1,0.1,0.1,0.1,0.2,0.2c1.7,2.9,2.9,6.1,3.6,9.3
		c-0.2,0.1-0.3,0.3-0.3,0.5c0,1.9,0,3.9,0,5.8c0,0.1,0,0.2,0.1,0.3c0,0,0,0,0,0c-0.8,1.9-1.7,3.8-2.3,5.8c-0.1,0.1-0.2,0.1-0.3,0.2
		c-0.8,1.1-1.6,2.2-2.4,3.3c-0.2-0.1-0.5,0-0.7,0.2c-1.6,2-3.7,3.6-6,4.7c0,0-0.1,0-0.1,0c-0.9,0.2-1.8,0.6-2.6,1c0,0-0.1,0-0.1,0.1
		c-2.3,0.6-4.9,0.5-7.3,0.4c-0.3,0-0.5,0.1-0.6,0.3c-1.5-0.2-3.1-0.6-4.5-1.1c0-0.2-0.2-0.3-0.3-0.4c-0.3-0.2-0.7-0.4-1-0.5
		c-0.2,0-0.3,0-0.5,0c0,0-0.1,0-0.1-0.1c-0.5-0.3-1-0.6-1.5-0.9c-0.5-0.3-1.1-0.5-1.4-1c-0.1-0.2-0.3-0.3-0.4-0.3
		c0.1-0.4-0.1-0.9-0.7-0.9c-0.2,0-0.3,0.1-0.4,0.2c-0.2-0.2-0.3-0.4-0.5-0.6c-0.7-0.8-1.4-1.6-2.1-2.4c-0.1-0.1-0.1-0.1-0.2-0.1
		c-0.4-0.6-0.7-1.2-1-1.8c-0.1-0.2-0.3-0.4-0.5-0.4c-0.3-0.6-0.5-1.2-0.8-1.8c-0.1-0.2-0.1-0.3-0.2-0.5c-0.1-0.2-0.2-0.3-0.4-0.3
		c-0.2-1-0.5-1.9-0.9-2.8c0-0.3,0-0.7-0.1-1c-0.2-0.6-0.8-1.3-0.6-1.9c0.1-0.5-0.3-1-0.9-0.9c-0.3,0.1-0.5,0.2-0.7,0.4
		c-0.2,0.2-0.2,0.5-0.1,0.8c-0.1,0.5,0,0.9,0.1,1.5c0.3,1,0.6,2,0.9,3c0,0.1,0.1,0.2,0.1,0.2c0,0.1,0,0.3,0,0.4c0.2,1,0.4,2,0.8,2.9
		c0.3,0.7,0.7,1.4,1.5,1.4c0.2,0.4,0.5,0.7,0.8,1.1c1,2.5,2.9,4.3,5.2,5.6c0,0.2,0.2,0.4,0.5,0.5c0.2,0,0.3,0.1,0.4,0.1
		c0,0.2,0.1,0.3,0.3,0.4c1.3,0.8,2.7,1.4,4.2,1.8c0,0.1,0.1,0.1,0.2,0.1c1.3,0.9,2.9,1.2,4.5,1.4c1.8,0.1,3.5,0.1,5.3,0.1
		c0.2,0.2,0.4,0.3,0.7,0.2c1.4-0.4,2.8-1,4.1-1.6c0.3,0.2,0.6,0.2,0.8-0.1c0.1-0.1,0.2-0.2,0.4-0.4c0.2,0.1,0.4,0.1,0.6,0
		c1.5-0.8,3-1.6,4.4-2.6c1.1-0.8,2.6-1.6,3.1-2.9c0.1-0.1,0.1-0.3,0-0.4l0.5-0.5c0.1,0,0.1-0.1,0.1-0.1c0.1,0,0.1-0.1,0.2-0.1
		c1.7-1.4,2.7-3.4,3.4-5.5c0.8-2.4,1.3-5,1.5-7.6C516.7,1257.4,516.7,1257.2,516.5,1257.1z"/>
</g>
<g>
	<g>
		<path class="st2" d="M673.4,1214.1c-1.3,0-1.3,1.9,0,1.9C674.6,1216,674.6,1214.1,673.4,1214.1z"/>
		<path class="st2" d="M663.5,1207c-0.1-0.2-0.3-0.4-0.6-0.4c0-0.1-0.1-0.2-0.2-0.3c-0.4-0.4-1-0.3-1.4,0c-0.2,0.2-0.4,0.4-0.5,0.7
			c-0.1,0.1-0.1,0.1-0.2,0.2c-0.5,0.6-0.2,1.6,0.5,2c0.2,0.1,0.3,0.1,0.5,0.1c0.2,0.1,0.5,0.1,0.7,0.1c0.2,0,0.5-0.1,0.7-0.3
			c0.2-0.1,0.3-0.2,0.5-0.4C663.8,1208.2,663.8,1207.6,663.5,1207z"/>
		<path class="st2" d="M672.9,1213.9c0.2-0.3,0.2-0.8-0.1-1.1c0.3-0.4,0.2-1.1-0.2-1.4c0.2-0.4,0.1-1-0.4-1.3c0-0.6-0.2-1.2-0.9-1.3
			c0-0.1,0-0.1,0-0.2c-0.1-0.4-0.3-0.8-0.6-1.2c-0.3-0.3-0.7-0.6-1.1-0.7c-0.2,0-0.3-0.1-0.5,0c0,0,0,0,0,0c0,0,0,0,0,0c0,0,0,0,0,0
			c-0.1-0.1-0.2-0.2-0.3-0.2c-0.1,0-0.2-0.1-0.3-0.1c-0.2-0.1-0.3-0.1-0.5,0c-0.1,0-0.2,0-0.3,0.1c-0.1,0-0.2,0.1-0.3,0.2
			c-0.1,0.1-0.2,0.1-0.2,0.2c-0.1,0.1-0.2,0.3-0.2,0.4c-0.1,0.5,0,1,0.4,1.4c0.3,0.3,0.7,0.5,1.1,0.5c0,0,0.1,0,0.1,0
			c0.1,0,0.1,0,0.2,0c0,0,0.1,0,0.1,0c0,0,0,0.1,0,0.1c0,0.3,0.3,0.6,0.6,0.7c0.1,0.1,0.2,0.1,0.3,0.1c0.1,0.5,0.4,1,1,1.1
			c0,0.2,0.2,0.4,0.3,0.5c-0.1,0.3,0.1,0.7,0.3,1c-0.2,0.3,0,0.6,0.2,0.9c-0.3,0.6-0.3,0.7,0.5,0.7
			C673.1,1214.4,673.2,1214.5,672.9,1213.9z"/>
		<path class="st2" d="M666,1206.5c-0.1-0.4-0.4-0.7-0.9-0.7c-0.1,0-0.2,0-0.3,0c-0.1,0-0.2,0-0.3,0c-1.2,0-1.3,1.9-0.1,1.9
			c0,0,0,0,0,0c0,0,0,0.1,0,0.1c0,0,0,0.1,0,0.1c-0.4,0.1-0.7,0.5-0.7,0.9c0,0-0.1,0.1-0.1,0.1c-0.6,0.3-0.5,1.4,0.3,1.5
			c0.1,0.1,0.3,0.1,0.4,0.1c0.4,0,0.7-0.2,0.8-0.5c0.6,0,0.9-0.5,0.9-1c0.4-0.3,0.4-0.8,0.3-1.2
			C666.6,1207.4,666.5,1206.7,666,1206.5z"/>
		<path class="st2" d="M635.1,1231.6c-1.1-1.6-2.7-6.7-3.4-8.5c-0.4-1.2-1.4-0.7-0.3,2.7c0.6,1.9,1,3.9,2.2,5.5
			C634.1,1231.9,635.5,1232.2,635.1,1231.6z"/>
		<path class="st2" d="M652.3,1254.8c-0.1-0.3-0.2-0.7-0.5-0.8c-0.1-0.8-0.7-1.5-1.7-1.5c-0.6,0-1,0.2-1.3,0.6
			c-0.7,0.6-0.8,1.7-0.3,2.5c0.1,0.2,0.2,0.5,0.3,0.7c0,0.9,0.6,1.8,1.7,1.8c0,0,0.1,0,0.1,0c0.2,0.1,0.5,0.2,0.8,0.2
			C653.3,1258.1,653.6,1255.6,652.3,1254.8z"/>
		<path class="st2" d="M618.1,1249.2c-0.9,0-0.9,1.4,0,1.4C619,1250.6,619,1249.2,618.1,1249.2z"/>
		<path class="st2" d="M643.8,1250.3c-0.5-1.4-1.1-2.9-1.9-4.2c-0.1-0.1-0.2-0.2-0.3-0.3c0.1-0.3,0.1-0.6-0.1-0.9
			c-0.3-0.4-0.5-0.8-0.8-1.3c0-0.5-0.1-0.9-0.3-1.4c-1.4-3.1-3-6.2-4.2-9.4c0,0,0-0.1,0-0.1c0-0.5-0.4-1-1.1-1
			c-0.4,0-0.7,0.2-0.9,0.4c-0.8,0.3-0.9,1.6-0.1,2.1c-0.8,0.1-1.3,0.5-2.1,0.6c-0.4,0.1-0.7,0.2-1,0.3c-0.8,0-1.6,0.3-1.8,1.1
			c-0.9,0.3-1.2,1.3-2.2,1.4c-0.4,0.1-0.6,0.4-0.5,0.7c-0.3,0.2-0.5,0.4-0.8,0.6c-0.1,0.1-0.1,0.1-0.2,0.2c0,0-0.1,0.1-0.1,0.1
			c-1.4,1.5-2.8,3-4.1,4.6c-0.2,0.3-0.5,0.6-0.7,0.9c-0.2-0.1-0.5-0.1-0.7,0.2c-0.5,0.6-1.6,1.5-1.7,2.4c0,0,0,0,0,0
			c-0.3,0.1-0.7,0.2-0.8,0.2c-0.4,0.2-0.7,0.5-1,0.9c-0.2,0.3-0.1,0.7,0.1,0.9c-0.1,0.1-0.2,0.2-0.2,0.3c-0.3-0.2-0.7-0.2-1,0.2
			c-0.5,0.9-1.5,1.5-2.1,2.3c-0.4,0.6,0.2,1.1,0.8,1c0,0,0,0,0,0.1c0,0.5,0.2,0.8,0.6,1.2c0,0,0.1,0.1,0.1,0.1
			c0.1,0.2,0.2,0.4,0.4,0.6c-0.1,0.3,0.2,0.7,0.5,0.8c0.3,0.1,0.6,0,0.7-0.2c0,0,0,0,0.1,0c6.2,0.4,12.5,1.3,18.7,1.1
			c1,0.1,2,0.2,3,0.3c0.8,0.1,1.4-0.5,1.7-1.2c1.1-0.8,0.8-3.1-1.1-3.3c-2.6-0.2-5.1-0.1-7.7,0.1c-0.1,0-0.3,0-0.4,0.1
			c-2.5-0.2-5.1-0.4-7.6-0.5c-0.5,0-1,0.2-1.2,0.5c-0.7-0.1-1.5-0.1-2.2-0.2c0-0.1-0.1-0.1-0.1-0.2c-0.4-0.4-0.7-0.8-0.9-1.3
			c-0.1-0.3-0.3-0.4-0.5-0.5c0,0,0,0,0,0c0.2-0.2,0.2-0.5,0.1-0.8c0.2,0,0.3,0,0.5-0.2c1.6-1,2.7-2.4,3.8-3.9
			c1.4-1.7,2.8-3.3,4.3-4.9c0.2-0.3,0.3-0.6,0.3-0.8c0.2-0.1,0.3-0.3,0.5-0.5c0.3-0.2,0.6-0.4,0.9-0.7c0.2-0.2,0.2-0.4,0.2-0.5
			c0.1-0.1,0.1-0.1,0.2-0.2c0.1,0.1,0.2,0.1,0.4,0.1c0.4,0,0.7-0.3,0.7-0.7c0.1,0,0.5,0.1,0.6,0.2c0.2,0.2,0.5-0.4,1.1-0.5
			c0.8-0.2,1.4-0.5,2.1-1.1c0,0,0,0,0.1,0.1c0.2,0.2,0.4,0.3,0.7,0.3c0.1,0,0.2,0,0.3-0.1c0,0.1-0.2,0.2-0.1,0.3
			c-0.1,0.3,0,0.9,0.4,1.1c0.6,1.4,1.4,2.7,2.2,4c0,0.2,0,0.5,0.2,0.8c0.1,0.2,0.3,0.5,0.4,0.7c0.6,1.2,0.8,2.5,1.2,3.8
			c0.5,1.3,1.2,2.3,2,3.4c0,0.1,0,0.3,0,0.4c0,0.4,0.4,0.6,0.8,0.6c0.3,0.3,0.8,0.4,1.2,0.3C643.6,1251.5,644,1250.9,643.8,1250.3z
			 M616.1,1252.1c-0.1,0.1-0.1,0.2-0.2,0.2c-0.2,0.1-0.4,0.2-0.6,0.4c-0.1-0.1-0.3-0.2-0.4-0.2c0,0,0,0,0,0c0.3-0.3,0.6-0.6,1-0.9
			c0.4,0.2,1,0,1-0.6c0,0,0-0.1,0-0.1l0.2,0.3c0,0.1,0.1,0.1,0.1,0.1C616.6,1251.5,616.3,1251.8,616.1,1252.1z"/>
		<path class="st2" d="M689.9,1254.7c0-0.5-0.2-1.1-0.7-1.3c-2.2-5.7-4.6-11.4-7-17.1c0,0,0-0.1-0.1-0.1c0.2-0.5,0.2-1-0.1-1.6
			c-1.9-3.6-3.5-7.3-4.9-11.1c-0.1-0.3-0.3-0.6-0.5-0.8c0-0.1,0-0.1,0-0.2c0.1-0.6-0.2-1.1-0.7-1.4c0-0.4-0.1-0.7-0.3-1
			c0-0.3,0-0.7-0.2-1c0-0.6-0.3-1.2-0.9-1.5c-0.1-0.5-0.3-1-0.4-1.5c-0.6-2.1-3.7-1.4-3.7,0.5c0,0-0.1,0.1-0.1,0.1c0,0-0.1,0-0.1,0
			c-1.5,0.3-1.8,2.3-0.8,3.2c0.1,0.5,0.2,0.9,0.3,1.4c0.1,0.2,0.2,0.5,0.4,0.9c-0.3,0.4-0.4,1-0.2,1.5c-0.1,0.3-0.2,0.7-0.3,1
			c-1.5,1.7-2.5,3.8-3.4,5.8c-1.1,1.5-2.2,3-3.1,4.7c-0.1,0.2-0.2,0.5-0.3,0.8c-1.3,1.8-2.6,3.7-3.8,5.6c-0.9,1-1.9,2.1-2.5,3.3
			c-0.3,0.6-0.5,1.5-0.8,2c-0.1,0.3-0.3,0.5-0.5,0.8c-0.2,0.3-0.2,0.3-0.3,0.4c-0.8,1-1.7,1.9-2.5,2.9c-0.1,0-0.2,0-0.3,0
			c-0.5,0-0.9,0.2-1.2,0.5c-1.2,0.4-1.3,2.2-0.3,2.9c0,0.1,0,0.2-0.1,0.3c-0.1,0.8,0,1.5,0.6,2.2c0.5,0.5,1.4,0.9,2.2,0.6
			c3.4-1.4,5.9-3.8,7.7-7c0.8-1.5,1.9-2.8,2.8-4.2c1-1.6,1.5-3.5,2-5.3c0.1,0,0.1-0.1,0.2-0.1c1.2-1,1.7-2.5,2.3-3.9
			c0.1-0.3,0.2-0.6,0.4-0.9c0.4-0.2,0.8-0.5,1-0.9c0.5-1.1,1.1-2.1,1.7-3.1c0.2-0.2,0.5-0.4,0.7-0.7c0.2-0.3,0.4-0.5,0.6-0.7
			c0.1,0.5,0.3,1,0.7,1.3c-0.1,1,0.5,2,1.8,2c0.3,0,0.6-0.1,0.9-0.2c0.3,0.2,0.6,0.3,1,0.3c0.2,0,0.3,0,0.4,0
			c0.4,0.9,0.9,1.8,1.3,2.6c0.1,0.2,0.3,0.4,0.4,0.5c0,0.3,0.1,0.6,0.2,0.9c2.7,6.3,5.3,12.6,7.8,19c0.6,1.6,3.1,1.5,3.1-0.4
			c0-0.2,0-0.4,0-0.6C690.4,1255.4,690.2,1255,689.9,1254.7z"/>
		<path class="st2" d="M643.5,1250.8c-0.3-0.1-0.7-0.1-1-0.2c0-0.2-0.1-0.3-0.2-0.5c-0.2-0.5-0.9-0.7-1.3-0.2
			c-0.3,0.4-0.2,1,0.1,1.4c0,0,0,0,0,0.1c-0.1,0.4,0.1,0.8,0.5,0.9c0.3,0.1,0.6,0,0.8-0.2c0.2,0,0.5,0.1,0.7,0.2
			c0.4,0.1,0.8-0.1,0.9-0.5C644.1,1251.3,643.9,1250.9,643.5,1250.8z"/>
		<path class="st2" d="M638.6,1258.3c-0.4,0-0.7,0.3-0.7,0.7v0.6c0,0.4,0.3,0.7,0.7,0.7c0.4,0,0.7-0.3,0.7-0.7v-0.6
			C639.3,1258.6,639,1258.3,638.6,1258.3z"/>
		<path class="st2" d="M651.1,1255.7c0.1-0.2,0-0.5-0.2-0.7c-0.2-0.4-0.4-0.8-0.6-1.1c0.1,0,0.1-0.1,0.2-0.1c0.7-0.5,0-1.8-0.7-1.2
			c-0.1,0.1-0.3,0.2-0.4,0.2c-0.1,0-0.2-0.1-0.3-0.1c-0.4-0.2-0.8,0-1,0.3c-0.1,0-0.3,0-0.4,0c-0.9,0-1.8-0.1-2.8-0.1
			c-1.8-0.1-3.7-0.2-5.5-0.3c-0.9,0-0.9,1.4,0,1.4l6.2,0.3c0.9,0,1.9,0.2,2.8,0.1c0.2,0.3,0.4,0.6,0.6,0.9c0.5,0.7,0.7,1.4,0.7,2.2
			c0,0.9,1.3,0.9,1.4,0C651.2,1256.8,651.2,1256.3,651.1,1255.7z"/>
		<ellipse class="st3" cx="662" cy="1207.9" rx="2" ry="1.8"/>
		<path class="st2" d="M651,1257.1c-0.2-0.4-0.4-0.8-0.6-1.1c0.1-0.5-0.2-1.1-0.5-1.7c0.1,0,0.1-0.1,0.2-0.1c0.8-0.5,0-1.7-0.7-1.2
			c0,0,0,0-0.1,0c-0.1-0.1-0.3-0.2-0.5-0.2c-0.1,0-0.1,0-0.1,0c-0.3-0.3-0.7-0.5-1.2-0.4c-0.9,0-1.7,0.2-2.6,0.3c-0.9,0-1.7,0-2.6,0
			c-0.6,0-1.3-0.2-1.9,0c-0.2,0.1-0.3,0.2-0.4,0.3c-0.1,0-0.3,0-0.4,0.1c-0.1,0-0.1,0-0.2,0.1c-0.4,0.1-0.7,0.5-0.7,0.9
			c0,0,0,0.1-0.1,0.1c-0.3,0.2-0.4,0.5-0.5,0.8c-0.5,1.1-0.7,2.3-0.6,3.6c0.1,0.4,0.3,0.7,0.6,0.9c0,0.3,0,0.6,0.1,0.9
			c-0.5,2.8,3.6,4.8,5.9,5.2c0.2,0,0.4,0,0.5-0.1c0.1,0,0.2,0.1,0.3,0.1c1,0,1.9-0.2,2.8-0.4c0.4-0.1,0.5-0.5,0.5-0.8
			c0,0,0,0,0.1-0.1c0.2-0.2,0.4-0.4,0.6-0.7c0.2,0,0.4-0.1,0.6-0.3c0.8-1.5,1.1-3.2,0.8-4.9C650.8,1258.1,651.3,1257.6,651,1257.1z
			 M648.9,1257.9c0,1.3-0.1,2.7-0.7,3.9c-0.5,0.5-0.9,0.9-1.6,1.2c-0.5,0.3-1,0.4-1.5,0.8c-0.1,0-0.1,0-0.2,0
			c-0.1,0-0.3,0.1-0.4,0.1c0,0-0.1,0-0.1,0c-1-0.2-2-0.6-2.9-1.1c-0.6-0.4-1.7-1.2-1.9-2c0.1-0.1,0.1-0.3,0.1-0.4
			c0-0.2-0.1-0.4-0.2-0.6c-0.1-0.3-0.1-0.5-0.1-0.8c0,0,0-0.1,0-0.1c0.1-0.2,0.1-0.3,0.1-0.6c0-0.4-0.1-0.8,0-1.1
			c0.2-0.1,0.3-0.2,0.4-0.5c0.1-0.4,0.6-0.5,0.9-0.7c0.3-0.2,0.5-0.4,0.8-0.6c0.7-0.8,1.9-0.8,2.9-0.8c0.3,0,0.8,0,1.2,0
			c0,0.1,0.1,0.2,0.2,0.3c0.4,0.4,0.9,0.8,1.4,1.1c0.3,0.2,0.6,0.3,0.9,0.5c0.2,0.4,0.4,0.8,0.5,1.2c0,0.1,0.1,0.1,0.1,0.1
			C648.9,1257.8,648.9,1257.9,648.9,1257.9z"/>
		<path class="st2" d="M651.5,1257.3c-0.4-1.2-0.7-2.5-1.4-3.6c0.2,0,0.3,0,0.5-0.1c0.9-0.3,0.5-1.6-0.4-1.4c-0.4,0.1-0.7,0.1-1,0.3
			c0,0-0.1,0-0.1,0.1c-0.3-0.2-0.7-0.1-0.9,0.2c-0.3,0-0.7,0.1-0.8,0.5c-0.1,0.3,0.1,0.8,0.5,0.9c0.3,0,0.6,0.1,0.8,0
			c0.7,0.9,1,2.5,1.3,3.4C650.4,1258.5,651.7,1258.1,651.5,1257.3z"/>
		<g>
			<path class="st3" d="M670.3,1223.4l-14.4,23.1c0,0-3.3,7.3-10.5,5.8l-25.4,0.2l-1.5-1.9l9.7-11c0,0,1.9-2,6.2-3.3l6.8,15.6"/>
			<line class="st3" x1="644.3" y1="1252.1" x2="635.9" y2="1231.4"/>
			<line class="st3" x1="634" y1="1231.9" x2="630.5" y2="1223.6"/>
			<line class="st3" x1="635.3" y1="1231.4" x2="631.7" y2="1223.1"/>
			<path class="st4" d="M630.1,1223.7c0,0,0.8-0.7,2.1-1c0,0-0.1-3.3,6.5-3c0,0,2-4.3-4.3-2.9c-1.9,0.4-3.1,1.9-7.8-0.9
				c0,0-3.2-1.8-3.8,1.9c0,0-0.6,2.7,4.1,2.4L630.1,1223.7z"/>
			<path class="st5" d="M629.3,1224.6"/>
			<line class="st3" x1="637.1" y1="1230.8" x2="631.8" y2="1232.9"/>
			<path class="st3" d="M598.9,1240.5c-0.9,1-7.1,8.6-5.6,18.6c0.1,0.9,1.9,11.7,12.1,16.8c7.7,3.8,16.6,2.6,23-2
				c6.6-4.8,8.7-12.1,9.2-14"/>
			<path class="st3" d="M600.3,1241.7c-0.8,0.9-6.3,8.2-5,17.3c1.6,10.8,11.3,15.3,11.8,15.5c6.9,3,14.5,1.9,20.1-2.1
				c6.1-4.4,7.8-13.1,8.2-14.8"/>
			<path class="st3" d="M601.7,1242.9c-0.8,0.9-5.7,7.5-4.4,15.7c0.2,1,1.7,9.7,9.9,13.7c6.5,3.2,14,1.8,19.1-2.1
				c5.3-4.1,6.6-11,6.9-12.6"/>
			<path class="st3" d="M666,1257.7c1.1,8.3,7.6,16.7,15.3,19.6c8.3,3,17.8,0.7,24-5.9c1.1-1.2,5.8-6.3,6.1-14.4
				c0.2-8.1-4.7-13.9-5.8-15.1c0.7,0.3-7.8-10.6-22-7.3"/>
			<path class="st3" d="M668,1256.7c1,7.5,6.8,15.6,13.8,18.1c7.5,2.7,16.1,0.7,21.6-5.3c1-1,5.2-5.7,5.5-13
				c0.2-7.3-3.8-12.2-4.7-13.3c0,0-8.6-9.9-19.7-7.2"/>
			<path class="st3" d="M685.1,1238.5c9.8-2.4,17.5,6.3,17.5,6.3c0.8,1,4.4,5.3,4.2,11.8c-0.2,6.5-4,10.5-4.9,11.5
				c-5,5.3-12.6,7.1-19.2,4.7c-6.2-2.2-10.7-7.8-11.6-14.4c0,0-2.9-9.4,8-17.8"/>
			<path class="st6" d="M679.1,1238.3c-11.3,7-10.6,17.7-10.6,17.7l-3.8,2.4c0,0-0.5-15.3,13.2-23.8"/>
			<polyline class="st6" points="681.3,1233 682.9,1232.7 684.2,1236.3 682.8,1236.8 			"/>
			<circle class="st7" cx="644.2" cy="1258.9" r="4.5"/>
			<path class="st4" d="M647,1267.4c-1.6-2.8-4.4-7.9-3.4-9c0.5-0.6,0.9-0.5,0.9-0.5c0.4,0.1,0.6,0.6,0.8,0.9c0.8,2,2.7,6.3,3.7,8.4
				c0,0.1,0.1,0.2,0.1,0.2"/>
			<path class="st4" d="M650,1270h-3.8c-0.7,0-1.2-0.6-1.2-1.2l0,0c0-0.7,0.6-1.2,1.2-1.2h3.8c0.7,0,1.2,0.6,1.2,1.2l0,0
				C651.2,1269.5,650.7,1270,650,1270z"/>
			<path class="st8" d="M676.3,1220.3l7.1,0.3c1,0,1.6-0.4,1.9-0.6c1.4-1,1.1-9.2,1.3-11c0.1-0.1,0.6-0.9,1.1-0.8
				c0.3,0.1,0.5,0.5,0.7,0.8c1,2.6,1,10.4,0.4,11.6c-0.8,1.5-2.5,2.5-4.4,2.4c-2.4,0-4.7-0.1-7.1-0.1"/>
			<path class="st3" d="M671.9,1214.8c0,0-0.5-5.6-5.1-6c0,0-1.6,3.1-4.3,0.9"/>
			<path class="st3" d="M673.3,1213.5c0,0-0.6-7.8-6.2-7l-0.3,2.3c0,0,0.9-4.2-4-2.7"/>
			<line class="st5" x1="672" y1="1220" x2="672.4" y2="1219.8"/>
			<line class="st5" x1="673.6" y1="1219.2" x2="674.3" y2="1218.9"/>
			<line class="st5" x1="672.5" y1="1221.3" x2="672.6" y2="1221.7"/>
			<line class="st5" x1="670.7" y1="1220.5" x2="671.2" y2="1220.2"/>
			<line class="st5" x1="673.5" y1="1223.5" x2="673.1" y2="1222.7"/>
			<line class="st5" x1="672.8" y1="1222" x2="672.5" y2="1221.2"/>
			<line class="st5" x1="674.1" y1="1225.2" x2="673.8" y2="1224.4"/>
			<line class="st5" x1="674.8" y1="1226.7" x2="674.5" y2="1225.9"/>
			<line class="st5" x1="675.4" y1="1228.3" x2="675" y2="1227.4"/>
			<line class="st5" x1="676" y1="1229.9" x2="675.7" y2="1229"/>
			<path class="st6" d="M628.7,1236c-2.4-3.6-17.2-10.2-30.3,3.2l5.9,5.6c0,0,2.7-1,6.9-0.8c2.3,0.1,6.2,0.8,7.9,1.5"/>
			<path class="st3" d="M633.2,1232.4l0.8,1.7c0,0-4.4,0.7-7.8,4.1c-3.3,3.4-13,14.2-13,14.2l2.2,3.7l21.9,1.2
				c0.2,3.6,2,6.6,4.7,7.8c1.2,0.5,2.3,0.6,3.2,0.5c0.5,0,2.4-0.3,3.9-1.9c2-2.1,1.6-4.9,1.6-5.3c0,0,4.6-0.6,8-5.1
				s5.9-8.8,6.8-10.9c0.9-2.1,4.9-9.1,7.2-11.5l1.3,2.7l3.5-0.2l8.9,22.1c0,0,0.8,3.3,2.7,2.6c1.9-0.8,1.4-2.5,0.8-3.8
				c-0.7-1.3-16.7-40.8-16.7-40.8l-4.6,4.4l1.6,5.7"/>
			<path class="st6" d="M625.6,1252.2c-0.1-0.5-4.2-4.9-4.2-4.9s8-9.7,8.8-9.4c6.5,2.7,8.2,14.3,8.2,14.1"/>
			<line class="st3" x1="639.6" y1="1263.4" x2="618.1" y2="1256.7"/>
			<path class="st3" d="M618.1,1256.7c0.6,0-3.9,4.4-5.7,0.3c-0.4-0.9-0.5-2.9,0.6-4.2"/>
			<path class="st9" d="M600,1240.1c0,0,12.7-11.5,26.6-2.9"/>
			<path class="st9" d="M629.9,1239.5c0,0,6.6,5.5,7.1,12.6"/>
			<polyline class="st3" points="616.1,1249.7 616.8,1251 615.3,1252.8 614,1253 			"/>
			<polyline class="st9" points="608.7,1244.2 612.6,1250.6 613.2,1251.6 			"/>
			<line class="st9" x1="599.9" y1="1246.6" x2="612.3" y2="1253.7"/>
			<line class="st9" x1="597.5" y1="1255.6" x2="612.1" y2="1256"/>
			<line class="st9" x1="616" y1="1248.9" x2="615.6" y2="1245"/>
			<line class="st9" x1="624.5" y1="1271" x2="616.1" y2="1259"/>
			<line class="st9" x1="615.3" y1="1273.8" x2="615.1" y2="1259.2"/>
			<line class="st9" x1="613.8" y1="1258.9" x2="606.4" y2="1271.2"/>
			<line class="st9" x1="612.2" y1="1257.3" x2="600.1" y2="1264.6"/>
			<line class="st9" x1="618.4" y1="1258" x2="630.6" y2="1264.7"/>
			<line class="st9" x1="688.7" y1="1238.4" x2="688.5" y2="1250.5"/>
			<line class="st9" x1="697.3" y1="1241" x2="690.4" y2="1253.1"/>
			<line class="st9" x1="704.2" y1="1247.3" x2="692" y2="1253.9"/>
			<line class="st9" x1="706.5" y1="1255.6" x2="692" y2="1255.9"/>
			<line class="st9" x1="703.8" y1="1265" x2="691.8" y2="1257.8"/>
			<line class="st9" x1="697.2" y1="1271.1" x2="690.2" y2="1259.1"/>
			<line class="st9" x1="688.4" y1="1273.1" x2="688.4" y2="1259.5"/>
			<line class="st9" x1="679.8" y1="1270.9" x2="686.7" y2="1259"/>
			<line class="st9" x1="673.2" y1="1264.4" x2="685.5" y2="1257.5"/>
			<line class="st9" x1="671.1" y1="1255.8" x2="684.8" y2="1255.8"/>
			<line class="st9" x1="685.4" y1="1253.7" x2="673.4" y2="1246.8"/>
			<path class="st3" d="M689.4,1252.1c-0.2,0.1,2.5,0.4,2.7,3.8c0.2,4.9-7.7,4.8-6.7-1.8"/>
			<path class="st10" d="M619.1,1250.3"/>
		</g>
	</g>
	<path d="M637.7,1259.6c-0.2-0.8-0.5-1.5-0.8-2.2c-0.2-0.5-1-0.4-1.2,0c-0.7,1.4-0.8,3-1.3,4.5c-0.3,0.8-0.6,1.6-1,2.4
		c-0.1,0.1-0.3,0.2-0.3,0.4c0,0.1-0.1,0.3-0.1,0.4c-0.2,0.4-0.5,0.8-0.8,1.2c-0.2,0.3-0.1,0.5,0,0.7c-0.3,0.5-0.7,1-1.3,1.4
		c-0.3,0.3-0.4,0.7-0.2,1c-0.1,0.1-0.2,0.1-0.3,0.2c-0.1,0.1-0.3,0.1-0.4,0.2c-0.4,0.2-0.4,0.5-0.3,0.8c-1.4,1.4-2.9,2.6-4.8,3.2
		c0,0-0.1,0-0.1,0c0,0,0,0,0,0c0,0,0,0,0,0c-0.1,0-0.1,0-0.2,0.1c-0.2,0.1-0.3,0.3-0.3,0.5c0,0-0.1,0-0.1,0c-0.4,0-0.7,0.1-1.1,0.2
		c-0.2,0.1-0.3,0.3-0.3,0.5c-1,0.3-2,0.5-3,0.5c-0.3,0-0.5,0.2-0.6,0.5c-0.3,0-0.6,0-0.9,0c-0.3,0-0.5,0.1-0.6,0.3
		c-1.2,0-2.3-0.1-3.5-0.1c-0.2,0-0.4,0.1-0.5,0.2c-0.2,0-0.5-0.1-0.7-0.1c-0.1,0-0.2,0-0.4,0c-0.1,0-0.2,0-0.2,0
		c-0.1-0.2-0.3-0.4-0.6-0.4c-1.7-0.1-3.3-0.7-4.8-1.7c-0.3-0.2-0.6-0.1-0.8,0.1c-0.2-0.2-0.4-0.4-0.6-0.6c-0.2-0.2-0.5-0.3-0.8-0.1
		c-0.1-0.1-0.2-0.2-0.3-0.3c-0.3-0.2-0.6-0.4-0.9-0.5c-0.4-0.5-0.9-1-1.3-1.4c-0.2-0.2-0.3-0.2-0.5-0.2c0,0,0-0.1-0.1-0.2
		c-0.1-0.4-0.5-0.5-0.8-0.5c-0.3-0.4-0.7-0.8-1-1.3c-0.2-0.4-0.4-0.7-0.6-1.1c-0.1-0.2-0.3-0.3-0.5-0.3c-0.3-0.5-0.7-1-1.1-1.4
		c-0.1-0.1-0.2-0.1-0.3-0.2c-0.4-0.7-0.7-1.3-0.9-2.1c-0.1-0.2-0.1-0.3-0.3-0.4c-0.5-1.5-1-3.1-1.4-4.6c0.1-0.2,0.2-0.4,0.2-0.6
		c-0.4-1.6-0.4-3.3-0.2-5c0-0.1,0.1-0.1,0.1-0.2c0.2-0.6,0.3-1.3,0.4-2c0.3-0.4,0.3-0.9,0.4-1.4c0.1-0.4,0.2-0.8,0.3-1.1
		c0.2,0,0.4-0.1,0.5-0.3c0.4-0.8,0.6-1.6,0.7-2.4c0.1,0,0.1-0.1,0.1-0.1c0.6-0.7,0.9-1.4,1-2.2c0,0,0,0,0,0c0,0,0,0,0,0c0,0,0,0,0,0
		c0.4-0.4,0.9-0.8,1-1.4c0,0,0,0,0,0c0.8,0,0.9-1,0.3-1.3c-0.2-0.5-1.1-0.6-1.4,0.1c-0.1,0.2-0.2,0.5-0.3,0.7
		c-0.3,0.4-0.6,0.8-0.8,1.1c0,0-0.1,0.1-0.1,0.1c0,0,0,0,0,0c-0.3,0.3-0.5,0.6-0.6,0.9c-0.1,0.1-0.3,0.1-0.3,0.3
		c-0.4,0.7-0.9,1.4-1.3,2.1c-0.2,0.3-0.1,0.7,0.1,0.9c-0.2,0.5-0.5,1-0.6,1.6c-0.1,0.3-0.2,0.6-0.2,0.9c0,0.1,0,0.3,0,0.5
		c0,0,0,0,0,0c0,0,0,0-0.1,0.1c-0.3,0.2-0.4,0.5-0.3,0.8c0,0,0,0.1,0,0.1c0,0.1,0,0.2,0,0.3c-0.1,0.1-0.1,0.2-0.2,0.3
		c-0.1,0.3-0.1,0.6-0.2,0.8c-0.3,1.6-0.3,3.1-0.1,4.7c-0.2,0.1-0.4,0.4-0.3,0.7c0.5,2.2,1.2,4.4,1.9,6.6c0.1,0.2,0.1,0.3,0.3,0.4
		c0.6,1.6,1.7,2.9,2.2,4.5c0.2,0.5,0.7,0.6,1.1,0.4c0.1,0.3,0.3,0.5,0.4,0.8c0.1,0.2,0.2,0.3,0.4,0.3c0.5,0.6,0.9,1.1,1.4,1.7
		c0.1,0.1,0.3,0.2,0.5,0.2c0.2,0.2,0.4,0.3,0.6,0.5c0.1,0.1,0.2,0.1,0.2,0.1c0,0.1,0,0.1,0.1,0.2c0.3,0.5,0.6,0.7,1.2,0.9
		c0.1,0,0.2,0,0.3,0c0.2,0.2,0.3,0.4,0.5,0.5c0.4,0.4,0.9,0.7,1.4,0.8c0,0,0,0,0,0c0.4,0.3,0.8,0.6,1.3,0.9c0.3,0.2,0.7,0.1,0.9-0.2
		c0.5,0.2,1.1,0.4,1.7,0.6c0.1,0.2,0.2,0.3,0.5,0.3c1.2,0.2,2.3,0.4,3.5,0.6c0.1,0,0.3,0,0.4,0c0.3,0,0.5,0.1,0.8,0.1
		c0.4,0.1,0.9,0.1,1.3,0c0.2,0,0.3-0.1,0.4-0.2c0.8,0,1.5,0.1,2.3,0.1c0.3,0,0.5-0.1,0.6-0.3c0.7,0,1.4-0.1,2.1-0.2
		c0.2,0,0.4-0.2,0.5-0.5c1-0.2,2-0.5,2.9-1c0.1-0.1,0.2-0.1,0.3-0.2c0.3-0.1,0.7-0.3,1-0.4c0.2-0.1,0.3-0.3,0.3-0.5
		c2.2-1,3.9-2.7,5.6-4.4c0.1-0.1,0.2-0.3,0.2-0.4c0.1-0.1,0.1-0.2,0.2-0.3c0.2,0,0.4-0.2,0.5-0.5c0.1-0.2,0.1-0.3,0.2-0.5
		c0.2,0,0.3-0.1,0.4-0.3c0.1-0.1,0.1-0.3,0.2-0.4c1.2-0.6,1.6-2.4,2-3.5c0.1-0.1,0.1-0.3,0-0.4c0.1-0.1,0.2-0.3,0.3-0.4
		c0.3-0.2,0.3-0.5,0.2-0.7c0.3-0.5,0.5-0.9,0.8-1.4c0.1-0.3,0.1-0.6-0.1-0.7c0.1-0.2,0.3-0.3,0.5-0.5
		C637.7,1260.2,637.7,1259.8,637.7,1259.6z"/>
	<path d="M711,1256.4c0.2-1.4,0.1-2.8-0.2-4.2c-0.3-1.4-1-2.6-1.6-3.9c-0.1-0.8-0.4-1.6-0.8-2.3c-0.1-0.2-0.3-0.3-0.5-0.3
		c-0.1-0.4-0.2-0.8-0.3-1.2c-0.1-0.4-0.5-0.6-0.8-0.5c-0.3-0.5-0.5-0.9-0.8-1.4c-0.4-0.8-0.9-1.6-1.5-2.3c-0.2-0.2-0.5-0.3-0.7-0.2
		c-0.5-1-1.4-1.6-2.4-2c-0.1,0-0.2,0-0.3,0c0,0,0,0,0,0c-0.6-0.5-1.2-0.9-1.9-1.2c-0.6-0.6-1.4-1-2.2-1.1c-0.5-0.2-0.9-0.4-1.4-0.6
		c-0.1-0.1-0.2-0.3-0.4-0.3c-0.6-0.2-1.3-0.3-1.9-0.4c-0.1-0.1-0.2-0.2-0.4-0.3c-2.9-0.5-5.8-0.4-8.6,0.4c-0.9,0.2-0.5,1.6,0.4,1.4
		c1.9-0.5,3.8-0.7,5.7-0.6c0.1,0.2,0.3,0.4,0.6,0.4c0.6,0,1.1,0,1.6,0.1c0.1,0.3,0.3,0.6,0.7,0.6c0.7,0,1.4,0,2,0.2
		c0,0.2,0.1,0.3,0.4,0.4c0.4,0.2,0.8,0.3,1.2,0.3c0.1,0.2,0.2,0.4,0.5,0.5c0.4,0.1,0.7,0.2,1.1,0.3c0,0.2,0.1,0.4,0.3,0.5
		c0.8,0.5,1.6,1,2.4,1.5c0.3,0.7,1,1,1.6,1.5c0.9,0.6,1.7,1.5,2.4,2.4c0.1,0.1,0.1,0.1,0.2,0.2c1.7,2.9,2.9,6.1,3.6,9.3
		c-0.2,0.1-0.3,0.3-0.3,0.5c0,1.9,0,3.9,0,5.8c0,0.1,0,0.2,0.1,0.3c0,0,0,0,0,0c-0.8,1.9-1.7,3.8-2.3,5.8c-0.1,0.1-0.2,0.1-0.3,0.2
		c-0.8,1.1-1.6,2.2-2.4,3.3c-0.2-0.1-0.5,0-0.7,0.2c-1.6,2-3.7,3.6-6,4.7c0,0-0.1,0-0.1,0c-0.9,0.2-1.8,0.6-2.6,1c0,0-0.1,0-0.1,0.1
		c-2.3,0.6-4.9,0.5-7.3,0.4c-0.3,0-0.5,0.1-0.6,0.3c-1.5-0.2-3.1-0.6-4.5-1.1c0-0.2-0.2-0.3-0.3-0.4c-0.3-0.2-0.7-0.4-1-0.5
		c-0.2,0-0.3,0-0.5,0c0,0-0.1,0-0.1-0.1c-0.5-0.3-1-0.6-1.5-0.9c-0.5-0.3-1.1-0.5-1.4-1c-0.1-0.2-0.3-0.3-0.4-0.3
		c0.1-0.4-0.1-0.9-0.7-0.9c-0.2,0-0.3,0.1-0.4,0.2c-0.2-0.2-0.3-0.4-0.5-0.6c-0.7-0.8-1.4-1.6-2.1-2.4c-0.1-0.1-0.1-0.1-0.2-0.1
		c-0.4-0.6-0.7-1.2-1-1.8c-0.1-0.2-0.3-0.4-0.5-0.4c-0.3-0.6-0.5-1.2-0.8-1.8c-0.1-0.2-0.1-0.3-0.2-0.5c-0.1-0.2-0.2-0.3-0.4-0.3
		c-0.2-1-0.5-1.9-0.9-2.8c0-0.3,0-0.7-0.1-1c-0.2-0.6-0.8-1.3-0.6-1.9c0.1-0.5-0.3-1-0.9-0.9c-0.3,0.1-0.5,0.2-0.7,0.4
		c-0.2,0.2-0.2,0.5-0.1,0.8c-0.1,0.5,0,0.9,0.1,1.5c0.3,1,0.6,2,0.9,3c0,0.1,0.1,0.2,0.1,0.2c0,0.1,0,0.3,0,0.4c0.2,1,0.4,2,0.8,2.9
		c0.3,0.7,0.7,1.4,1.5,1.4c0.2,0.4,0.5,0.7,0.8,1.1c1,2.5,2.9,4.3,5.2,5.6c0,0.2,0.2,0.4,0.5,0.5c0.2,0,0.3,0.1,0.4,0.1
		c0,0.2,0.1,0.3,0.3,0.4c1.3,0.8,2.7,1.4,4.2,1.8c0,0.1,0.1,0.1,0.2,0.1c1.3,0.9,2.9,1.2,4.5,1.4c1.8,0.1,3.5,0.1,5.3,0.1
		c0.2,0.2,0.4,0.3,0.7,0.2c1.4-0.4,2.8-1,4.1-1.6c0.3,0.2,0.6,0.2,0.8-0.1c0.1-0.1,0.2-0.2,0.4-0.4c0.2,0.1,0.4,0.1,0.6,0
		c1.5-0.8,3-1.6,4.4-2.6c1.1-0.8,2.6-1.6,3.1-2.9c0.1-0.1,0.1-0.3,0-0.4l0.5-0.5c0.1,0,0.1-0.1,0.1-0.1c0.1,0,0.1-0.1,0.2-0.1
		c1.7-1.4,2.7-3.4,3.4-5.5c0.8-2.4,1.3-5,1.5-7.6C711.3,1256.6,711.2,1256.5,711,1256.4z"/>
</g>
<g>
	<g>
		<path class="st2" d="M2115.7,1215.1c1.3,0,1.3,1.9,0,1.9C2114.4,1217.1,2114.4,1215.1,2115.7,1215.1z"/>
		<path class="st2" d="M2125.5,1208.1c0.1-0.2,0.3-0.4,0.6-0.4c0-0.1,0.1-0.2,0.2-0.3c0.4-0.4,1-0.3,1.4,0c0.2,0.2,0.4,0.4,0.5,0.7
			c0.1,0.1,0.1,0.1,0.2,0.2c0.5,0.6,0.2,1.6-0.5,2c-0.2,0.1-0.3,0.1-0.5,0.1c-0.2,0.1-0.5,0.1-0.7,0.1c-0.2,0-0.5-0.1-0.7-0.3
			c-0.2-0.1-0.3-0.2-0.5-0.4C2125.2,1209.3,2125.2,1208.7,2125.5,1208.1z"/>
		<path class="st2" d="M2116.2,1215c-0.2-0.3-0.2-0.8,0.1-1.1c-0.3-0.4-0.2-1.1,0.2-1.4c-0.2-0.4-0.1-1,0.4-1.3
			c0-0.6,0.2-1.2,0.9-1.3c0-0.1,0-0.1,0-0.2c0.1-0.4,0.3-0.8,0.6-1.2c0.3-0.3,0.7-0.6,1.1-0.7c0.2,0,0.3-0.1,0.5,0c0,0,0,0,0,0
			c0,0,0,0,0,0c0,0,0,0,0,0c0.1-0.1,0.2-0.2,0.3-0.2c0.1,0,0.2-0.1,0.3-0.1c0.2-0.1,0.3-0.1,0.5,0c0.1,0,0.2,0,0.3,0.1
			c0.1,0,0.2,0.1,0.3,0.2c0.1,0.1,0.2,0.1,0.2,0.2c0.1,0.1,0.2,0.3,0.2,0.4c0.1,0.5,0,1-0.4,1.4c-0.3,0.3-0.7,0.5-1.1,0.5
			c0,0-0.1,0-0.1,0c-0.1,0-0.1,0-0.2,0c0,0-0.1,0-0.1,0c0,0,0,0.1,0,0.1c0,0.3-0.3,0.6-0.6,0.7c-0.1,0.1-0.2,0.1-0.3,0.1
			c-0.1,0.5-0.4,1-1,1.1c0,0.2-0.2,0.4-0.3,0.5c0.1,0.3-0.1,0.7-0.3,1c0.2,0.3,0,0.6-0.2,0.9c0.3,0.6,0.3,0.7-0.5,0.7
			C2116,1215.5,2115.9,1215.6,2116.2,1215z"/>
		<path class="st2" d="M2123.1,1207.6c0.1-0.4,0.4-0.7,0.9-0.7c0.1,0,0.2,0,0.3,0c0.1,0,0.2,0,0.3,0c1.2,0,1.3,1.9,0.1,1.9
			c0,0,0,0,0,0c0,0,0,0.1,0,0.1c0,0,0,0.1,0,0.1c0.4,0.1,0.7,0.5,0.7,0.9c0,0,0.1,0.1,0.1,0.1c0.6,0.3,0.5,1.4-0.3,1.5
			c-0.1,0.1-0.3,0.1-0.4,0.1c-0.4,0-0.7-0.2-0.8-0.5c-0.6,0-0.9-0.5-0.9-1c-0.4-0.3-0.4-0.8-0.3-1.2
			C2122.4,1208.5,2122.5,1207.8,2123.1,1207.6z"/>
		<path class="st2" d="M2153.9,1232.6c1.1-1.6,2.7-6.7,3.4-8.5c0.4-1.2,1.4-0.7,0.3,2.7c-0.6,1.9-1,3.9-2.2,5.5
			C2154.9,1233,2153.5,1233.3,2153.9,1232.6z"/>
		<path class="st2" d="M2136.8,1255.9c0.1-0.3,0.2-0.7,0.5-0.8c0.1-0.8,0.7-1.5,1.7-1.5c0.6,0,1,0.2,1.3,0.6
			c0.7,0.6,0.8,1.7,0.3,2.5c-0.1,0.2-0.2,0.5-0.3,0.7c0,0.9-0.6,1.8-1.7,1.8c0,0-0.1,0-0.1,0c-0.2,0.1-0.5,0.2-0.8,0.2
			C2135.8,1259.2,2135.5,1256.7,2136.8,1255.9z"/>
		<path class="st2" d="M2170.9,1250.2c0.9,0,0.9,1.4,0,1.4C2170,1251.7,2170,1250.2,2170.9,1250.2z"/>
		<path class="st2" d="M2145.9,1252.8c0.5,0.2,0.9,0.1,1.2-0.3c0.3,0.1,0.7-0.1,0.8-0.6c0-0.1,0-0.3,0-0.4c0.8-1,1.5-2.1,2-3.4
			c0.4-1.3,0.6-2.6,1.2-3.8c0.1-0.2,0.3-0.5,0.4-0.7c0.2-0.3,0.2-0.5,0.2-0.8c0.7-1.4,1.6-2.6,2.2-4c0.3-0.2,0.5-0.7,0.4-1.1
			c0-0.1-0.2-0.2-0.1-0.3c0.1,0,0.2,0.1,0.3,0.1c0.3,0,0.5-0.1,0.7-0.3c0,0,0,0,0.1-0.1c0.7,0.6,1.3,0.9,2.1,1.1
			c0.5,0.1,0.8,0.7,1.1,0.5c0.1-0.1,0.4-0.2,0.6-0.2c0,0.3,0.2,0.7,0.7,0.7c0.1,0,0.3,0,0.4-0.1c0.1,0.1,0.1,0.1,0.2,0.2
			c0,0.2,0,0.4,0.2,0.5c0.3,0.3,0.6,0.5,0.9,0.7c0.1,0.2,0.3,0.3,0.5,0.5c0,0.3,0,0.6,0.3,0.8c1.5,1.6,3,3.2,4.3,4.9
			c1.2,1.4,2.2,2.9,3.8,3.9c0.2,0.1,0.3,0.1,0.5,0.2c-0.1,0.2-0.1,0.5,0.1,0.8c0,0,0,0,0,0c-0.2,0.1-0.4,0.3-0.5,0.5
			c-0.2,0.5-0.5,0.9-0.9,1.3c-0.1,0.1-0.1,0.1-0.1,0.2c-0.7,0.1-1.5,0.1-2.2,0.2c-0.3-0.3-0.7-0.5-1.2-0.5c-2.5,0.1-5.1,0.3-7.6,0.5
			c-0.1,0-0.3-0.1-0.4-0.1c-2.6-0.2-5.1-0.2-7.7-0.1c-1.8,0.1-2.2,2.4-1.1,3.3c0.2,0.7,0.9,1.3,1.7,1.2c1-0.1,2-0.2,3-0.3
			c6.2,0.2,12.5-0.7,18.7-1.1c0,0,0,0,0.1,0c0.2,0.2,0.4,0.3,0.7,0.2c0.3-0.1,0.6-0.5,0.5-0.8c0.2-0.2,0.3-0.4,0.4-0.6
			c0.1,0,0.1-0.1,0.1-0.1c0.3-0.3,0.5-0.7,0.6-1.2c0,0,0,0,0-0.1c0.5,0.1,1.2-0.4,0.8-1c-0.6-0.9-1.6-1.4-2.1-2.3
			c-0.2-0.4-0.7-0.4-1-0.2c0-0.1-0.1-0.2-0.2-0.3c0.2-0.2,0.3-0.5,0.1-0.9c-0.2-0.4-0.5-0.7-1-0.9c-0.1-0.1-0.5-0.1-0.8-0.2
			c0,0,0,0,0,0c-0.1-0.9-1.2-1.8-1.7-2.4c-0.2-0.2-0.5-0.3-0.7-0.2c-0.2-0.3-0.5-0.6-0.7-0.9c-1.3-1.6-2.7-3.1-4.1-4.6
			c0,0-0.1-0.1-0.1-0.1c0-0.1-0.1-0.2-0.2-0.2c-0.3-0.2-0.5-0.4-0.8-0.6c0.1-0.3-0.1-0.7-0.5-0.7c-1-0.1-1.2-1.1-2.2-1.4
			c-0.2-0.8-1-1.1-1.8-1.1c-0.3-0.1-0.7-0.3-1-0.3c-0.7-0.1-1.3-0.6-2.1-0.6c0.8-0.4,0.7-1.7-0.1-2.1c-0.2-0.3-0.5-0.4-0.9-0.4
			c-0.7,0-1.1,0.5-1.1,1c0,0,0,0.1,0,0.1c-1.2,3.2-2.7,6.3-4.2,9.4c-0.2,0.5-0.3,0.9-0.3,1.4c-0.3,0.4-0.5,0.8-0.8,1.3
			c-0.2,0.3-0.2,0.7-0.1,0.9c-0.1,0.1-0.2,0.2-0.3,0.3c-0.8,1.3-1.4,2.7-1.9,4.2C2145.1,1251.9,2145.4,1252.6,2145.9,1252.8z
			 M2171.9,1252.4c0,0,0.1-0.1,0.1-0.1l0.2-0.3c0,0,0,0.1,0,0.1c0,0.6,0.5,0.8,1,0.6c0.3,0.3,0.7,0.6,1,0.9c0,0,0,0,0,0
			c-0.2,0-0.3,0.1-0.4,0.2c-0.2-0.2-0.4-0.3-0.6-0.4c-0.1-0.1-0.1-0.2-0.2-0.2C2172.7,1252.8,2172.4,1252.5,2171.9,1252.4z"/>
		<path class="st2" d="M2099.1,1255.8c0-0.5,0.2-1.1,0.7-1.3c2.2-5.7,4.6-11.4,7-17.1c0,0,0-0.1,0.1-0.1c-0.2-0.5-0.2-1,0.1-1.6
			c1.9-3.6,3.5-7.3,4.9-11.1c0.1-0.3,0.3-0.6,0.5-0.8c0-0.1,0-0.1,0-0.2c-0.1-0.6,0.2-1.1,0.7-1.4c0-0.4,0.1-0.7,0.3-1
			c0-0.3,0-0.7,0.2-1c0-0.6,0.3-1.2,0.9-1.5c0.1-0.5,0.3-1,0.4-1.5c0.6-2.1,3.7-1.4,3.7,0.5c0,0,0.1,0.1,0.1,0.1c0,0,0.1,0,0.1,0
			c1.5,0.3,1.8,2.3,0.8,3.2c-0.1,0.5-0.2,0.9-0.3,1.4c-0.1,0.2-0.2,0.5-0.4,0.9c0.3,0.4,0.4,1,0.2,1.5c0.1,0.3,0.2,0.7,0.3,1
			c1.5,1.7,2.5,3.8,3.4,5.8c1.1,1.5,2.2,3,3.1,4.7c0.1,0.2,0.2,0.5,0.3,0.8c1.3,1.8,2.6,3.7,3.8,5.6c0.9,1,1.9,2.1,2.5,3.3
			c0.3,0.6,0.5,1.5,0.8,2c0.1,0.3,0.3,0.5,0.5,0.8c0.2,0.3,0.2,0.3,0.3,0.4c0.8,1,1.7,1.9,2.5,2.9c0.1,0,0.2,0,0.3,0
			c0.5,0,0.9,0.2,1.2,0.5c1.2,0.4,1.3,2.2,0.3,2.9c0,0.1,0,0.2,0.1,0.3c0.1,0.8,0,1.5-0.6,2.2c-0.5,0.5-1.4,0.9-2.2,0.6
			c-3.4-1.4-5.9-3.8-7.7-7c-0.8-1.5-1.9-2.8-2.8-4.2c-1-1.6-1.5-3.5-2-5.3c-0.1,0-0.1-0.1-0.2-0.1c-1.2-1-1.7-2.5-2.3-3.9
			c-0.1-0.3-0.2-0.6-0.4-0.9c-0.4-0.2-0.8-0.5-1-0.9c-0.5-1.1-1.1-2.1-1.7-3.1c-0.2-0.2-0.5-0.4-0.7-0.7c-0.2-0.3-0.4-0.5-0.6-0.7
			c-0.1,0.5-0.3,1-0.7,1.3c0.1,1-0.5,2-1.8,2c-0.3,0-0.6-0.1-0.9-0.2c-0.3,0.2-0.6,0.3-1,0.3c-0.2,0-0.3,0-0.4,0
			c-0.4,0.9-0.9,1.8-1.3,2.6c-0.1,0.2-0.3,0.4-0.4,0.5c0,0.3-0.1,0.6-0.2,0.9c-2.7,6.3-5.3,12.6-7.8,19c-0.6,1.6-3.1,1.5-3.1-0.4
			c0-0.2,0-0.4,0-0.6C2098.6,1256.5,2098.8,1256.1,2099.1,1255.8z"/>
		<path class="st2" d="M2145,1252.7c0.1,0.3,0.5,0.6,0.9,0.5c0.2-0.1,0.5-0.1,0.7-0.2c0.2,0.2,0.5,0.3,0.8,0.2
			c0.4-0.1,0.6-0.5,0.5-0.9c0,0,0,0,0-0.1c0.3-0.4,0.4-1,0.1-1.4c-0.3-0.6-1.1-0.4-1.3,0.2c-0.1,0.2-0.1,0.3-0.2,0.5
			c-0.3,0.1-0.7,0.1-1,0.2C2145.1,1252,2144.9,1252.3,2145,1252.7z"/>
		<path class="st2" d="M2150.4,1259.4c0.4,0,0.7,0.3,0.7,0.7v0.6c0,0.4-0.3,0.7-0.7,0.7c-0.4,0-0.7-0.3-0.7-0.7v-0.6
			C2149.7,1259.7,2150,1259.3,2150.4,1259.4z"/>
		<path class="st2" d="M2138,1256.8c-0.1-0.2,0-0.5,0.2-0.7c0.2-0.4,0.4-0.8,0.6-1.1c-0.1,0-0.1-0.1-0.2-0.1c-0.7-0.5,0-1.8,0.7-1.2
			c0.1,0.1,0.3,0.2,0.4,0.2c0.1,0,0.2-0.1,0.3-0.1c0.4-0.2,0.8,0,1,0.3c0.1,0,0.3,0,0.4,0c0.9,0,1.8-0.1,2.8-0.1
			c1.8-0.1,3.7-0.2,5.5-0.3c0.9,0,0.9,1.4,0,1.4l-6.2,0.3c-0.9,0-1.9,0.2-2.8,0.1c-0.2,0.3-0.4,0.6-0.6,0.9
			c-0.5,0.7-0.7,1.4-0.7,2.2c0,0.9-1.3,0.9-1.4,0C2137.8,1257.9,2137.8,1257.4,2138,1256.8z"/>
		<ellipse class="st3" cx="2127" cy="1208.9" rx="2" ry="1.8"/>
		<path class="st2" d="M2138.7,1259.2c-0.3,1.7,0,3.4,0.8,4.9c0.1,0.3,0.4,0.4,0.6,0.3c0.2,0.2,0.4,0.5,0.6,0.7c0,0,0,0,0.1,0.1
			c-0.1,0.3,0.1,0.7,0.5,0.8c0.9,0.2,1.9,0.3,2.8,0.4c0.1,0,0.2,0,0.3-0.1c0.1,0.1,0.3,0.1,0.5,0.1c2.2-0.4,6.3-2.4,5.9-5.2
			c0.1-0.3,0.1-0.6,0.1-0.9c0.3-0.2,0.6-0.4,0.6-0.9c0.2-1.3-0.1-2.5-0.6-3.6c-0.1-0.3-0.2-0.6-0.5-0.8c0,0,0-0.1-0.1-0.1
			c-0.1-0.4-0.3-0.7-0.7-0.9c-0.1,0-0.1,0-0.2-0.1c-0.1,0-0.3-0.1-0.4-0.1c-0.1-0.1-0.2-0.2-0.4-0.3c-0.6-0.2-1.3,0-1.9,0
			c-0.9,0.1-1.7,0.1-2.6,0c-0.9,0-1.7-0.2-2.6-0.3c-0.5,0-0.9,0.1-1.2,0.4c0,0-0.1,0-0.1,0c-0.2,0-0.4,0.1-0.5,0.2c0,0,0,0-0.1,0
			c-0.8-0.5-1.5,0.7-0.7,1.2c0.1,0,0.1,0.1,0.2,0.1c-0.4,0.6-0.6,1.2-0.5,1.7c-0.2,0.4-0.4,0.8-0.6,1.1
			C2137.8,1258.7,2138.2,1259.2,2138.7,1259.2z M2140.1,1258.8c0,0,0.1-0.1,0.1-0.1c0.2-0.4,0.4-0.8,0.5-1.2
			c0.2-0.2,0.6-0.3,0.9-0.5c0.5-0.3,1-0.7,1.4-1.1c0.1-0.1,0.1-0.2,0.2-0.3c0.5,0,0.9,0,1.2,0c1,0,2.2,0.1,2.9,0.8
			c0.2,0.2,0.5,0.4,0.8,0.6c0.3,0.2,0.8,0.3,0.9,0.7c0.1,0.3,0.2,0.4,0.4,0.5c0,0.4,0,0.7,0,1.1c0,0.2,0,0.4,0.1,0.6
			c0,0,0,0.1,0,0.1c0,0.3,0,0.6-0.1,0.8c-0.1,0.2-0.1,0.3-0.2,0.6c0,0.2,0,0.3,0.1,0.4c-0.2,0.8-1.3,1.6-1.9,2
			c-0.9,0.6-1.9,0.9-2.9,1.1c0,0-0.1,0-0.1,0c-0.1-0.1-0.2-0.1-0.4-0.1c-0.1,0-0.1,0-0.2,0c-0.4-0.4-0.9-0.6-1.5-0.8
			c-0.6-0.3-1.1-0.7-1.6-1.2c-0.5-1.2-0.7-2.6-0.7-3.9C2140.1,1258.9,2140.1,1258.9,2140.1,1258.8z"/>
		<path class="st2" d="M2137.6,1258.3c0.4-1.2,0.7-2.5,1.4-3.6c-0.2,0-0.3,0-0.5-0.1c-0.9-0.3-0.5-1.6,0.4-1.4
			c0.4,0.1,0.7,0.1,1,0.3c0,0,0.1,0,0.1,0.1c0.3-0.2,0.7-0.1,0.9,0.2c0.3,0,0.7,0.1,0.8,0.5c0.1,0.3-0.1,0.8-0.5,0.9
			c-0.3,0-0.6,0.1-0.8,0c-0.7,0.9-1,2.5-1.3,3.4C2138.6,1259.6,2137.3,1259.2,2137.6,1258.3z"/>
		<g>
			<path class="st3" d="M2118.7,1224.5l14.4,23.1c0,0,3.3,7.3,10.5,5.8l25.4,0.2l1.5-1.9l-9.7-11c0,0-1.9-2-6.2-3.3l-6.8,15.6"/>
			<line class="st3" x1="2144.7" y1="1253.2" x2="2153.2" y2="1232.5"/>
			<line class="st3" x1="2155" y1="1233" x2="2158.5" y2="1224.7"/>
			<line class="st3" x1="2153.8" y1="1232.5" x2="2157.3" y2="1224.2"/>
			<path class="st4" d="M2158.9,1224.8c0,0-0.8-0.7-2.1-1c0,0,0.1-3.3-6.5-3c0,0-2-4.3,4.3-2.9c1.9,0.4,3.1,1.9,7.8-0.9
				c0,0,3.2-1.8,3.8,1.9c0,0,0.6,2.7-4.1,2.4L2158.9,1224.8z"/>
			<path class="st5" d="M2159.7,1225.6"/>
			<line class="st3" x1="2151.9" y1="1231.9" x2="2157.2" y2="1234"/>
			<path class="st3" d="M2190.1,1241.6c0.9,1,7.1,8.6,5.6,18.6c-0.1,0.9-1.9,11.7-12.1,16.8c-7.7,3.8-16.6,2.6-23-2
				c-6.6-4.8-8.7-12.1-9.2-14"/>
			<path class="st3" d="M2188.7,1242.7c0.8,0.9,6.3,8.2,5,17.3c-1.6,10.8-11.3,15.3-11.8,15.5c-6.9,3-14.5,1.9-20.1-2.1
				c-6.1-4.4-7.8-13.1-8.2-14.8"/>
			<path class="st3" d="M2187.3,1244c0.8,0.9,5.7,7.5,4.4,15.7c-0.2,1-1.7,9.7-9.9,13.7c-6.5,3.2-14,1.8-19.1-2.1
				c-5.3-4.1-6.6-11-6.9-12.6"/>
			<path class="st3" d="M2123,1258.8c-1.1,8.3-7.6,16.7-15.3,19.6c-8.3,3-17.8,0.7-23.9-5.9c-1.1-1.2-5.8-6.3-6.1-14.4
				c-0.2-8.1,4.7-13.9,5.8-15.1c-0.7,0.2,7.8-10.6,22-7.3"/>
			<path class="st3" d="M2121,1257.8c-1,7.5-6.8,15.6-13.8,18.1c-7.5,2.7-16.1,0.7-21.6-5.3c-1-1-5.2-5.7-5.5-13
				c-0.2-7.3,3.8-12.2,4.7-13.3c0,0,8.6-9.9,19.7-7.2"/>
			<path class="st3" d="M2103.9,1239.6c-9.8-2.4-17.5,6.3-17.5,6.3c-0.8,1-4.4,5.3-4.2,11.8c0.2,6.5,4,10.5,4.9,11.5
				c5,5.3,12.6,7.1,19.2,4.7c6.2-2.2,10.7-7.8,11.6-14.4c0,0,2.9-9.4-8-17.8"/>
			<path class="st6" d="M2109.9,1239.4c11.3,7,10.6,17.7,10.6,17.7l3.8,2.4c0,0,0.5-15.3-13.2-23.8"/>
			<polyline class="st6" points="2107.7,1234.1 2106.2,1233.8 2104.8,1237.4 2106.2,1237.9 			"/>
			<circle class="st7" cx="2144.8" cy="1260" r="4.5"/>
			<path class="st4" d="M2142,1268.4c1.6-2.8,4.4-7.9,3.4-9c-0.5-0.6-0.9-0.5-0.9-0.5c-0.4,0.1-0.6,0.6-0.8,0.9
				c-0.8,2-2.7,6.3-3.7,8.4c0,0.1-0.1,0.2-0.1,0.2"/>
			<path class="st4" d="M2139,1271.1h3.8c0.7,0,1.2-0.6,1.2-1.2l0,0c0-0.7-0.6-1.2-1.2-1.2h-3.8c-0.7,0-1.2,0.6-1.2,1.2l0,0
				C2137.8,1270.5,2138.3,1271.1,2139,1271.1z"/>
			<path class="st8" d="M2112.7,1221.4l-7.1,0.3c-1,0-1.6-0.4-1.9-0.6c-1.4-1-1.1-9.2-1.3-11c-0.1-0.1-0.6-0.9-1.1-0.8
				c-0.3,0.1-0.5,0.5-0.7,0.8c-1,2.6-1,10.4-0.4,11.6c0.8,1.5,2.5,2.5,4.4,2.4c2.4,0,4.7-0.1,7.1-0.1"/>
			<path class="st3" d="M2117.2,1215.8c0,0,0.5-5.6,5.1-6c0,0,1.6,3.1,4.3,0.9"/>
			<path class="st3" d="M2115.7,1214.6c0,0,0.6-7.8,6.2-7l0.3,2.3c0,0-0.9-4.2,4-2.7"/>
			<line class="st5" x1="2117" y1="1221" x2="2116.6" y2="1220.9"/>
			<line class="st5" x1="2115.4" y1="1220.3" x2="2114.7" y2="1219.9"/>
			<line class="st5" x1="2116.5" y1="1222.3" x2="2116.4" y2="1222.8"/>
			<line class="st5" x1="2118.4" y1="1221.6" x2="2117.8" y2="1221.3"/>
			<line class="st5" x1="2115.6" y1="1224.6" x2="2115.9" y2="1223.8"/>
			<line class="st5" x1="2116.2" y1="1223.1" x2="2116.5" y2="1222.3"/>
			<line class="st5" x1="2114.9" y1="1226.3" x2="2115.2" y2="1225.5"/>
			<line class="st5" x1="2114.2" y1="1227.8" x2="2114.6" y2="1227"/>
			<line class="st5" x1="2113.7" y1="1229.3" x2="2114" y2="1228.5"/>
			<line class="st5" x1="2113" y1="1230.9" x2="2113.3" y2="1230.1"/>
			<path class="st6" d="M2160.3,1237.1c2.4-3.6,17.2-10.2,30.3,3.2l-5.9,5.6c0,0-2.7-1-6.9-0.8c-2.3,0.1-6.2,0.8-7.9,1.5"/>
			<path class="st3" d="M2155.8,1233.5l-0.8,1.7c0,0,4.4,0.7,7.8,4.1s13,14.2,13,14.2l-2.2,3.7l-21.9,1.2c-0.2,3.6-2,6.6-4.7,7.8
				c-1.2,0.5-2.3,0.6-3.2,0.5c-0.5,0-2.4-0.3-3.9-1.9c-2-2.1-1.6-4.9-1.6-5.3c0,0-4.6-0.6-8-5.1c-3.4-4.4-5.9-8.8-6.8-10.9
				c-0.9-2.1-4.9-9.1-7.2-11.5l-1.3,2.7l-3.5-0.2l-8.9,22.1c0,0-0.8,3.3-2.7,2.6s-1.4-2.5-0.8-3.8s16.7-40.8,16.7-40.8l4.6,4.4
				l-1.6,5.7"/>
			<path class="st6" d="M2163.4,1253.3c0.1-0.5,4.2-4.9,4.2-4.9s-8-9.7-8.8-9.4c-6.5,2.7-8.2,14.3-8.2,14.1"/>
			<line class="st3" x1="2149.4" y1="1264.5" x2="2170.9" y2="1257.8"/>
			<path class="st3" d="M2170.9,1257.7c-0.6,0,3.9,4.4,5.7,0.3c0.4-0.9,0.5-2.9-0.6-4.2"/>
			<path class="st9" d="M2189,1241.2c0,0-12.7-11.5-26.6-2.9"/>
			<path class="st9" d="M2159.2,1240.6c0,0-6.6,5.5-7.1,12.6"/>
			<polyline class="st3" points="2173,1250.7 2172.2,1252.1 2173.7,1253.9 2175,1254.1 			"/>
			<polyline class="st9" points="2180.3,1245.2 2176.4,1251.6 2175.8,1252.6 			"/>
			<line class="st9" x1="2189.1" y1="1247.7" x2="2176.7" y2="1254.8"/>
			<line class="st9" x1="2191.5" y1="1256.7" x2="2177" y2="1257.1"/>
			<line class="st9" x1="2173" y1="1250" x2="2173.5" y2="1246.1"/>
			<line class="st9" x1="2164.6" y1="1272" x2="2172.9" y2="1260.1"/>
			<line class="st9" x1="2173.7" y1="1274.9" x2="2173.9" y2="1260.3"/>
			<line class="st9" x1="2175.3" y1="1260" x2="2182.6" y2="1272.3"/>
			<line class="st9" x1="2176.9" y1="1258.4" x2="2188.9" y2="1265.7"/>
			<line class="st9" x1="2170.7" y1="1259.1" x2="2158.4" y2="1265.8"/>
			<line class="st9" x1="2100.3" y1="1239.5" x2="2100.5" y2="1251.6"/>
			<line class="st9" x1="2091.8" y1="1242.1" x2="2098.6" y2="1254.1"/>
			<line class="st9" x1="2084.9" y1="1248.3" x2="2097.1" y2="1255"/>
			<line class="st9" x1="2082.5" y1="1256.7" x2="2097" y2="1257"/>
			<line class="st9" x1="2085.2" y1="1266.1" x2="2097.3" y2="1258.9"/>
			<line class="st9" x1="2091.9" y1="1272.2" x2="2098.8" y2="1260.2"/>
			<line class="st9" x1="2100.7" y1="1274.2" x2="2100.7" y2="1260.6"/>
			<line class="st9" x1="2109.2" y1="1271.9" x2="2102.3" y2="1260.1"/>
			<line class="st9" x1="2115.8" y1="1265.4" x2="2103.5" y2="1258.6"/>
			<line class="st9" x1="2117.9" y1="1256.9" x2="2104.3" y2="1256.9"/>
			<line class="st9" x1="2103.6" y1="1254.8" x2="2115.7" y2="1247.8"/>
			<path class="st3" d="M2099.6,1253.2c0.2,0.1-2.5,0.4-2.7,3.8c-0.2,4.9,7.7,4.8,6.7-1.8"/>
			<path class="st10" d="M2170,1251.4"/>
		</g>
	</g>
	<path d="M2151.3,1260.7c0.2-0.8,0.5-1.5,0.8-2.2c0.2-0.5,1-0.4,1.2,0c0.7,1.4,0.8,3,1.3,4.5c0.3,0.8,0.6,1.6,1,2.4
		c0.1,0.1,0.3,0.2,0.3,0.4c0,0.1,0.1,0.3,0.1,0.4c0.2,0.4,0.5,0.8,0.8,1.2c0.2,0.3,0.1,0.5,0,0.7c0.3,0.5,0.7,1,1.3,1.4
		c0.3,0.3,0.4,0.7,0.2,1c0.1,0.1,0.2,0.1,0.3,0.2c0.1,0.1,0.3,0.1,0.4,0.2c0.4,0.2,0.4,0.5,0.3,0.8c1.4,1.4,2.9,2.6,4.8,3.2
		c0,0,0.1,0,0.1,0c0,0,0,0,0,0c0,0,0,0,0,0c0.1,0,0.1,0,0.2,0.1c0.2,0.1,0.3,0.3,0.3,0.5c0,0,0.1,0,0.1,0c0.4,0,0.7,0.1,1.1,0.2
		c0.2,0.1,0.3,0.3,0.3,0.5c1,0.3,2,0.5,3,0.5c0.3,0,0.5,0.2,0.6,0.5c0.3,0,0.6,0,0.9,0c0.3,0,0.5,0.1,0.6,0.3c1.2,0,2.3-0.1,3.5-0.1
		c0.2,0,0.4,0.1,0.5,0.2c0.2,0,0.5-0.1,0.7-0.1c0.1,0,0.2,0,0.4,0c0.1,0,0.2,0,0.2,0c0.1-0.2,0.3-0.4,0.6-0.4
		c1.7-0.1,3.3-0.7,4.8-1.7c0.3-0.2,0.6-0.1,0.8,0.1c0.2-0.2,0.4-0.4,0.6-0.6c0.2-0.2,0.5-0.3,0.8-0.1c0.1-0.1,0.2-0.2,0.3-0.3
		c0.3-0.2,0.6-0.4,0.9-0.5c0.4-0.5,0.9-1,1.3-1.4c0.2-0.2,0.3-0.2,0.5-0.2c0,0,0-0.1,0.1-0.2c0.1-0.4,0.5-0.5,0.8-0.5
		c0.3-0.4,0.7-0.8,1-1.3c0.2-0.4,0.4-0.7,0.6-1.1c0.1-0.2,0.3-0.3,0.5-0.3c0.3-0.5,0.7-1,1.1-1.4c0.1-0.1,0.2-0.1,0.3-0.2
		c0.4-0.7,0.7-1.3,0.9-2.1c0.1-0.2,0.1-0.3,0.3-0.4c0.5-1.5,1-3.1,1.4-4.6c-0.1-0.2-0.2-0.4-0.2-0.6c0.4-1.6,0.4-3.3,0.2-5
		c0-0.1-0.1-0.1-0.1-0.2c-0.2-0.6-0.3-1.3-0.4-2c-0.3-0.4-0.3-0.9-0.4-1.4c-0.1-0.4-0.2-0.8-0.3-1.1c-0.2,0-0.4-0.1-0.6-0.3
		c-0.4-0.8-0.6-1.6-0.7-2.4c-0.1,0-0.1-0.1-0.1-0.1c-0.6-0.7-0.9-1.4-1-2.2c0,0,0,0,0,0c0,0,0,0,0,0c0,0,0,0,0,0
		c-0.4-0.4-0.9-0.8-1-1.4c0,0,0,0,0,0c-0.8,0-0.9-1-0.3-1.3c0.2-0.5,1.1-0.6,1.4,0.1c0.1,0.2,0.2,0.5,0.3,0.7
		c0.3,0.4,0.6,0.8,0.8,1.1c0,0,0.1,0.1,0.1,0.1c0,0,0,0,0,0c0.3,0.3,0.5,0.6,0.6,0.9c0.1,0.1,0.3,0.1,0.3,0.3
		c0.4,0.7,0.9,1.4,1.3,2.1c0.2,0.3,0.1,0.7-0.1,0.9c0.2,0.5,0.5,1,0.6,1.6c0.1,0.3,0.2,0.6,0.2,0.9c0,0.1,0,0.3,0,0.5c0,0,0,0,0,0
		c0,0,0,0,0.1,0.1c0.3,0.2,0.4,0.5,0.3,0.8c0,0,0,0.1,0,0.1c0,0.1,0,0.2,0,0.3c0.1,0.1,0.1,0.2,0.2,0.3c0.1,0.3,0.1,0.6,0.2,0.8
		c0.3,1.6,0.3,3.1,0.1,4.7c0.2,0.1,0.4,0.4,0.3,0.7c-0.5,2.2-1.2,4.4-1.9,6.6c-0.1,0.2-0.1,0.3-0.3,0.4c-0.6,1.6-1.7,2.9-2.2,4.5
		c-0.2,0.5-0.7,0.6-1.1,0.4c-0.1,0.3-0.3,0.5-0.4,0.8c-0.1,0.2-0.2,0.3-0.4,0.3c-0.5,0.6-0.9,1.1-1.4,1.7c-0.1,0.1-0.3,0.2-0.5,0.2
		c-0.2,0.2-0.4,0.3-0.6,0.5c-0.1,0.1-0.2,0.1-0.2,0.1c0,0.1,0,0.1-0.1,0.2c-0.3,0.5-0.6,0.7-1.2,0.9c-0.1,0-0.2,0-0.3,0
		c-0.2,0.2-0.3,0.4-0.5,0.5c-0.4,0.4-0.9,0.7-1.4,0.8c0,0,0,0,0,0c-0.4,0.3-0.8,0.6-1.3,0.9c-0.3,0.2-0.7,0.1-0.9-0.2
		c-0.5,0.2-1.1,0.4-1.7,0.6c-0.1,0.2-0.2,0.3-0.5,0.3c-1.2,0.2-2.3,0.4-3.5,0.6c-0.1,0-0.3,0-0.4,0c-0.3,0-0.5,0.1-0.8,0.1
		c-0.4,0.1-0.9,0.1-1.3,0c-0.2,0-0.3-0.1-0.4-0.2c-0.8,0-1.5,0.1-2.3,0.1c-0.3,0-0.5-0.1-0.6-0.3c-0.7,0-1.4-0.1-2.1-0.2
		c-0.2,0-0.4-0.2-0.5-0.5c-1-0.2-2-0.5-2.9-1c-0.1-0.1-0.2-0.1-0.3-0.2c-0.4-0.1-0.7-0.3-1-0.4c-0.2-0.1-0.3-0.3-0.3-0.5
		c-2.2-1-3.9-2.7-5.6-4.4c-0.1-0.1-0.2-0.3-0.2-0.4c-0.1-0.1-0.1-0.2-0.2-0.3c-0.2,0-0.4-0.2-0.5-0.5c-0.1-0.2-0.1-0.3-0.2-0.5
		c-0.2,0-0.3-0.1-0.4-0.3c-0.1-0.1-0.1-0.3-0.2-0.4c-1.2-0.6-1.6-2.4-2-3.5c-0.1-0.1-0.1-0.3,0-0.4c-0.1-0.1-0.2-0.3-0.3-0.4
		c-0.3-0.2-0.3-0.5-0.2-0.7c-0.3-0.5-0.5-0.9-0.8-1.4c-0.1-0.3-0.1-0.6,0.1-0.7c-0.1-0.2-0.3-0.3-0.5-0.5
		C2151.3,1261.2,2151.3,1260.9,2151.3,1260.7z"/>
	<path d="M2078,1257.4c-0.2-1.4-0.1-2.8,0.2-4.2c0.3-1.4,1-2.6,1.6-3.9c0.1-0.8,0.4-1.6,0.8-2.3c0.1-0.2,0.3-0.3,0.5-0.3
		c0.1-0.4,0.2-0.8,0.3-1.2c0.1-0.4,0.5-0.6,0.8-0.5c0.3-0.5,0.5-0.9,0.8-1.4c0.4-0.8,0.9-1.6,1.5-2.3c0.2-0.2,0.5-0.3,0.7-0.2
		c0.5-1,1.4-1.6,2.4-2c0.1,0,0.2,0,0.3,0c0,0,0,0,0,0c0.6-0.5,1.2-0.9,1.9-1.2c0.6-0.6,1.4-1,2.2-1.1c0.5-0.2,0.9-0.4,1.4-0.6
		c0.1-0.1,0.2-0.3,0.4-0.3c0.6-0.2,1.3-0.3,1.9-0.4c0.1-0.1,0.2-0.2,0.4-0.3c2.9-0.5,5.8-0.4,8.6,0.4c0.9,0.2,0.5,1.6-0.4,1.4
		c-1.9-0.5-3.8-0.7-5.7-0.6c-0.1,0.2-0.3,0.4-0.6,0.4c-0.6,0-1.1,0-1.6,0.1c-0.1,0.3-0.3,0.6-0.7,0.6c-0.7,0-1.4,0-2,0.2
		c0,0.2-0.1,0.3-0.3,0.4c-0.4,0.2-0.8,0.3-1.2,0.3c-0.1,0.2-0.2,0.4-0.5,0.5c-0.4,0.1-0.7,0.2-1.1,0.3c0,0.2-0.1,0.4-0.3,0.5
		c-0.8,0.5-1.6,1-2.4,1.5c-0.3,0.7-1,1-1.6,1.5c-0.9,0.6-1.7,1.5-2.4,2.4c-0.1,0.1-0.1,0.1-0.2,0.2c-1.7,2.9-2.9,6.1-3.6,9.3
		c0.2,0.1,0.3,0.3,0.3,0.5c0,1.9,0,3.9,0,5.8c0,0.1,0,0.2-0.1,0.3c0,0,0,0,0,0c0.8,1.9,1.7,3.8,2.3,5.8c0.1,0.1,0.2,0.1,0.3,0.2
		c0.8,1.1,1.6,2.2,2.4,3.3c0.2-0.1,0.5,0,0.7,0.2c1.6,2,3.7,3.6,6,4.7c0,0,0.1,0,0.1,0c0.9,0.2,1.8,0.6,2.6,1c0,0,0.1,0,0.1,0.1
		c2.3,0.6,4.9,0.5,7.3,0.4c0.3,0,0.5,0.1,0.6,0.3c1.5-0.2,3.1-0.6,4.5-1.1c0-0.2,0.2-0.3,0.3-0.4c0.3-0.2,0.7-0.4,1-0.5
		c0.2,0,0.3,0,0.5,0c0,0,0.1,0,0.1-0.1c0.5-0.3,1-0.6,1.5-0.9c0.5-0.3,1.1-0.5,1.4-1c0.1-0.2,0.3-0.3,0.4-0.3
		c-0.1-0.4,0.1-0.9,0.7-0.9c0.2,0,0.3,0.1,0.4,0.2c0.2-0.2,0.3-0.4,0.5-0.6c0.7-0.8,1.4-1.6,2.1-2.4c0.1-0.1,0.1-0.1,0.2-0.1
		c0.4-0.6,0.7-1.2,1-1.8c0.1-0.2,0.3-0.4,0.5-0.4c0.3-0.6,0.5-1.2,0.8-1.8c0.1-0.2,0.1-0.3,0.2-0.5c0.1-0.2,0.2-0.3,0.4-0.3
		c0.2-1,0.5-1.9,0.9-2.8c0-0.3,0-0.7,0.1-1c0.2-0.6,0.8-1.3,0.6-1.9c-0.1-0.5,0.3-1,0.9-0.9c0.3,0.1,0.5,0.2,0.7,0.4
		c0.2,0.2,0.2,0.5,0.1,0.8c0.1,0.5,0,0.9-0.1,1.5c-0.3,1-0.6,2-0.9,3c0,0.1-0.1,0.2-0.1,0.2c0,0.1,0,0.3,0,0.4c-0.2,1-0.4,2-0.8,2.9
		c-0.3,0.7-0.7,1.4-1.5,1.4c-0.2,0.4-0.5,0.7-0.8,1.1c-1,2.5-2.9,4.3-5.2,5.6c0,0.2-0.2,0.4-0.5,0.5c-0.2,0-0.3,0.1-0.4,0.1
		c0,0.2-0.1,0.3-0.3,0.4c-1.3,0.8-2.7,1.4-4.2,1.8c0,0.1-0.1,0.1-0.2,0.1c-1.3,0.9-2.9,1.2-4.5,1.4c-1.8,0.1-3.5,0.1-5.3,0.1
		c-0.2,0.2-0.4,0.3-0.7,0.2c-1.4-0.4-2.8-1-4.1-1.6c-0.3,0.2-0.6,0.2-0.8-0.1c-0.1-0.1-0.2-0.2-0.4-0.4c-0.2,0.1-0.4,0.1-0.6,0
		c-1.5-0.8-3-1.6-4.4-2.6c-1.1-0.8-2.6-1.6-3.1-2.9c-0.1-0.1-0.1-0.3,0-0.4l-0.5-0.5c-0.1,0-0.1-0.1-0.1-0.1c-0.1,0-0.1-0.1-0.2-0.1
		c-1.7-1.4-2.7-3.4-3.4-5.5c-0.8-2.4-1.3-5-1.5-7.6C2077.8,1257.7,2077.8,1257.5,2078,1257.4z"/>
</g>
<g>
	<g>
		<path class="st2" d="M1802.8,1215.7c1.3,0,1.3,1.9,0,1.9C1801.6,1217.6,1801.6,1215.7,1802.8,1215.7z"/>
		<path class="st2" d="M1812.7,1208.6c0.1-0.2,0.3-0.4,0.6-0.4c0-0.1,0.1-0.2,0.2-0.3c0.4-0.4,1-0.3,1.4,0c0.2,0.2,0.4,0.4,0.5,0.7
			c0.1,0.1,0.1,0.1,0.2,0.2c0.5,0.6,0.2,1.6-0.5,2c-0.2,0.1-0.3,0.1-0.5,0.1c-0.2,0.1-0.5,0.1-0.7,0.1c-0.2,0-0.5-0.1-0.7-0.3
			c-0.2-0.1-0.3-0.2-0.5-0.4C1812.4,1209.8,1812.4,1209.2,1812.7,1208.6z"/>
		<path class="st2" d="M1803.4,1215.5c-0.2-0.3-0.2-0.8,0.1-1.1c-0.3-0.4-0.2-1.1,0.2-1.4c-0.2-0.4-0.1-1,0.4-1.3
			c0-0.6,0.2-1.2,0.9-1.3c0-0.1,0-0.1,0-0.2c0.1-0.4,0.3-0.8,0.6-1.2c0.3-0.3,0.7-0.6,1.1-0.7c0.2,0,0.3-0.1,0.5,0c0,0,0,0,0,0
			c0,0,0,0,0,0c0,0,0,0,0,0c0.1-0.1,0.2-0.2,0.3-0.2c0.1,0,0.2-0.1,0.3-0.1c0.2-0.1,0.3-0.1,0.5,0c0.1,0,0.2,0,0.3,0.1
			c0.1,0,0.2,0.1,0.3,0.2c0.1,0.1,0.2,0.1,0.2,0.2c0.1,0.1,0.2,0.3,0.2,0.4c0.1,0.5,0,1-0.4,1.4c-0.3,0.3-0.7,0.5-1.1,0.5
			c0,0-0.1,0-0.1,0c-0.1,0-0.1,0-0.2,0c0,0-0.1,0-0.1,0c0,0,0,0.1,0,0.1c0,0.3-0.3,0.6-0.6,0.7c-0.1,0.1-0.2,0.1-0.3,0.1
			c-0.1,0.5-0.4,1-1,1.1c0,0.2-0.2,0.4-0.3,0.5c0.1,0.3-0.1,0.7-0.3,1c0.2,0.3,0,0.6-0.2,0.9c0.3,0.6,0.3,0.7-0.5,0.7
			C1803.2,1216,1803.1,1216.1,1803.4,1215.5z"/>
		<path class="st2" d="M1810.3,1208.1c0.1-0.4,0.4-0.7,0.9-0.7c0.1,0,0.2,0,0.3,0c0.1,0,0.2,0,0.3,0c1.2,0,1.3,1.9,0.1,1.9
			c0,0,0,0,0,0c0,0,0,0.1,0,0.1c0,0,0,0.1,0,0.1c0.4,0.1,0.7,0.5,0.7,0.9c0,0,0.1,0.1,0.1,0.1c0.6,0.3,0.5,1.4-0.3,1.5
			c-0.1,0.1-0.3,0.1-0.4,0.1c-0.4,0-0.7-0.2-0.8-0.5c-0.6,0-0.9-0.5-0.9-1c-0.4-0.3-0.4-0.8-0.3-1.2
			C1809.6,1209,1809.7,1208.3,1810.3,1208.1z"/>
		<path class="st2" d="M1841.1,1233.2c1.1-1.6,2.7-6.7,3.4-8.5c0.4-1.2,1.4-0.7,0.3,2.7c-0.6,1.9-1,3.9-2.2,5.5
			C1842.1,1233.5,1840.7,1233.8,1841.1,1233.2z"/>
		<path class="st2" d="M1824,1256.4c0.1-0.3,0.2-0.7,0.5-0.8c0.1-0.8,0.7-1.5,1.7-1.5c0.6,0,1,0.2,1.3,0.6c0.7,0.6,0.8,1.7,0.3,2.5
			c-0.1,0.2-0.2,0.5-0.3,0.7c0,0.9-0.6,1.8-1.7,1.8c0,0-0.1,0-0.1,0c-0.2,0.1-0.5,0.2-0.8,0.2
			C1823,1259.7,1822.6,1257.2,1824,1256.4z"/>
		<path class="st2" d="M1858.1,1250.8c0.9,0,0.9,1.4,0,1.4C1857.2,1252.2,1857.2,1250.8,1858.1,1250.8z"/>
		<path class="st2" d="M1833.1,1253.3c0.5,0.2,0.9,0.1,1.2-0.3c0.3,0.1,0.7-0.1,0.8-0.6c0-0.1,0-0.3,0-0.4c0.8-1,1.5-2.1,2-3.4
			c0.4-1.3,0.6-2.6,1.2-3.8c0.1-0.2,0.3-0.5,0.4-0.7c0.2-0.3,0.2-0.5,0.2-0.8c0.7-1.4,1.6-2.6,2.2-4c0.3-0.2,0.5-0.7,0.4-1.1
			c0-0.1-0.2-0.2-0.1-0.3c0.1,0,0.2,0.1,0.3,0.1c0.3,0,0.5-0.1,0.7-0.3c0,0,0,0,0.1-0.1c0.7,0.6,1.3,0.9,2.1,1.1
			c0.5,0.1,0.8,0.7,1.1,0.5c0.1-0.1,0.4-0.2,0.6-0.2c0,0.3,0.2,0.7,0.7,0.7c0.1,0,0.3,0,0.4-0.1c0.1,0.1,0.1,0.1,0.2,0.2
			c0,0.2,0,0.4,0.2,0.5c0.3,0.3,0.6,0.5,0.9,0.7c0.1,0.2,0.3,0.3,0.5,0.5c0,0.3,0,0.6,0.3,0.8c1.5,1.6,3,3.2,4.3,4.9
			c1.2,1.4,2.2,2.9,3.8,3.9c0.2,0.1,0.3,0.1,0.5,0.2c-0.1,0.2-0.1,0.5,0.1,0.8c0,0,0,0,0,0c-0.2,0.1-0.4,0.3-0.5,0.5
			c-0.2,0.5-0.5,0.9-0.9,1.3c-0.1,0.1-0.1,0.1-0.1,0.2c-0.7,0.1-1.5,0.1-2.2,0.2c-0.3-0.3-0.7-0.5-1.2-0.5c-2.5,0.1-5.1,0.3-7.6,0.5
			c-0.1,0-0.3-0.1-0.4-0.1c-2.6-0.2-5.1-0.2-7.7-0.1c-1.8,0.1-2.2,2.4-1.1,3.3c0.2,0.7,0.9,1.3,1.7,1.2c1-0.1,2-0.2,3-0.3
			c6.2,0.2,12.5-0.7,18.7-1.1c0,0,0,0,0.1,0c0.2,0.2,0.4,0.3,0.7,0.2c0.3-0.1,0.6-0.5,0.5-0.8c0.2-0.2,0.3-0.4,0.4-0.6
			c0.1,0,0.1-0.1,0.1-0.1c0.3-0.3,0.5-0.7,0.6-1.2c0,0,0,0,0-0.1c0.5,0.1,1.2-0.4,0.8-1c-0.6-0.9-1.6-1.4-2.1-2.3
			c-0.2-0.4-0.7-0.4-1-0.2c0-0.1-0.1-0.2-0.2-0.3c0.2-0.2,0.3-0.5,0.1-0.9c-0.2-0.4-0.5-0.7-1-0.9c-0.1-0.1-0.5-0.1-0.8-0.2
			c0,0,0,0,0,0c-0.1-0.9-1.2-1.8-1.7-2.4c-0.2-0.2-0.5-0.3-0.7-0.2c-0.2-0.3-0.5-0.6-0.7-0.9c-1.3-1.6-2.7-3.1-4.1-4.6
			c0,0-0.1-0.1-0.1-0.1c0-0.1-0.1-0.2-0.2-0.2c-0.3-0.2-0.5-0.4-0.8-0.6c0.1-0.3-0.1-0.7-0.5-0.7c-1-0.1-1.2-1.1-2.2-1.4
			c-0.2-0.8-1-1.1-1.8-1.1c-0.3-0.1-0.7-0.3-1-0.3c-0.7-0.1-1.3-0.6-2.1-0.6c0.8-0.4,0.7-1.7-0.1-2.1c-0.2-0.3-0.5-0.4-0.9-0.4
			c-0.7,0-1.1,0.5-1.1,1c0,0,0,0.1,0,0.1c-1.2,3.2-2.7,6.3-4.2,9.4c-0.2,0.5-0.3,0.9-0.3,1.4c-0.3,0.4-0.5,0.8-0.8,1.3
			c-0.2,0.3-0.2,0.7-0.1,0.9c-0.1,0.1-0.2,0.2-0.3,0.3c-0.8,1.3-1.4,2.7-1.9,4.2C1832.2,1252.5,1832.6,1253.1,1833.1,1253.3z
			 M1859.1,1253c0,0,0.1-0.1,0.1-0.1l0.2-0.3c0,0,0,0.1,0,0.1c0,0.6,0.5,0.8,1,0.6c0.3,0.3,0.7,0.6,1,0.9c0,0,0,0,0,0
			c-0.2,0-0.3,0.1-0.4,0.2c-0.2-0.2-0.4-0.3-0.6-0.4c-0.1-0.1-0.1-0.2-0.2-0.2C1859.9,1253.4,1859.6,1253.1,1859.1,1253z"/>
		<path class="st2" d="M1786.3,1256.4c0-0.5,0.2-1.1,0.7-1.3c2.2-5.7,4.6-11.4,7-17.1c0,0,0-0.1,0.1-0.1c-0.2-0.5-0.2-1,0.1-1.6
			c1.9-3.6,3.5-7.3,4.9-11.1c0.1-0.3,0.3-0.6,0.5-0.8c0-0.1,0-0.1,0-0.2c-0.1-0.6,0.2-1.1,0.7-1.4c0-0.4,0.1-0.7,0.3-1
			c0-0.3,0-0.7,0.2-1c0-0.6,0.3-1.2,0.9-1.5c0.1-0.5,0.3-1,0.4-1.5c0.6-2.1,3.7-1.4,3.7,0.5c0,0,0.1,0.1,0.1,0.1c0,0,0.1,0,0.1,0
			c1.5,0.3,1.8,2.3,0.8,3.2c-0.1,0.5-0.2,0.9-0.3,1.4c-0.1,0.2-0.2,0.5-0.4,0.9c0.3,0.4,0.4,1,0.2,1.5c0.1,0.3,0.2,0.7,0.3,1
			c1.5,1.7,2.5,3.8,3.4,5.8c1.1,1.5,2.2,3,3.1,4.7c0.1,0.2,0.2,0.5,0.3,0.8c1.3,1.8,2.6,3.7,3.8,5.6c0.9,1,1.9,2.1,2.5,3.3
			c0.3,0.6,0.5,1.5,0.8,2c0.1,0.3,0.3,0.5,0.5,0.8c0.2,0.3,0.2,0.3,0.3,0.4c0.8,1,1.7,1.9,2.5,2.9c0.1,0,0.2,0,0.3,0
			c0.5,0,0.9,0.2,1.2,0.5c1.2,0.4,1.3,2.2,0.3,2.9c0,0.1,0,0.2,0.1,0.3c0.1,0.8,0,1.5-0.6,2.2c-0.5,0.5-1.4,0.9-2.2,0.6
			c-3.4-1.4-5.9-3.8-7.7-7c-0.8-1.5-1.9-2.8-2.8-4.2c-1-1.6-1.5-3.5-2-5.3c-0.1,0-0.1-0.1-0.2-0.1c-1.2-1-1.7-2.5-2.3-3.9
			c-0.1-0.3-0.2-0.6-0.4-0.9c-0.4-0.2-0.8-0.5-1-0.9c-0.5-1.1-1.1-2.1-1.7-3.1c-0.2-0.2-0.5-0.4-0.7-0.7c-0.2-0.3-0.4-0.5-0.6-0.7
			c-0.1,0.5-0.3,1-0.7,1.3c0.1,1-0.5,2-1.8,2c-0.3,0-0.6-0.1-0.9-0.2c-0.3,0.2-0.6,0.3-1,0.3c-0.2,0-0.3,0-0.4,0
			c-0.4,0.9-0.9,1.8-1.3,2.6c-0.1,0.2-0.3,0.4-0.4,0.5c0,0.3-0.1,0.6-0.2,0.9c-2.7,6.3-5.3,12.6-7.8,19c-0.6,1.6-3.1,1.5-3.1-0.4
			c0-0.2,0-0.4,0-0.6C1785.8,1257,1786,1256.6,1786.3,1256.4z"/>
		<path class="st2" d="M1832.2,1253.3c0.1,0.3,0.5,0.6,0.9,0.5c0.2-0.1,0.5-0.1,0.7-0.2c0.2,0.2,0.5,0.3,0.8,0.2
			c0.4-0.1,0.6-0.5,0.5-0.9c0,0,0,0,0-0.1c0.3-0.4,0.4-1,0.1-1.4c-0.3-0.6-1.1-0.4-1.3,0.2c-0.1,0.2-0.1,0.3-0.2,0.5
			c-0.3,0.1-0.7,0.1-1,0.2C1832.3,1252.5,1832.1,1252.9,1832.2,1253.3z"/>
		<path class="st2" d="M1837.6,1259.9c0.4,0,0.7,0.3,0.7,0.7v0.6c0,0.4-0.3,0.7-0.7,0.7c-0.4,0-0.7-0.3-0.7-0.7v-0.6
			C1836.9,1260.2,1837.2,1259.9,1837.6,1259.9z"/>
		<path class="st2" d="M1825.2,1257.3c-0.1-0.2,0-0.5,0.2-0.7c0.2-0.4,0.4-0.8,0.6-1.1c-0.1,0-0.1-0.1-0.2-0.1
			c-0.7-0.5,0-1.8,0.7-1.2c0.1,0.1,0.3,0.2,0.4,0.2c0.1,0,0.2-0.1,0.3-0.1c0.4-0.2,0.8,0,1,0.3c0.1,0,0.3,0,0.4,0
			c0.9,0,1.8-0.1,2.8-0.1c1.8-0.1,3.7-0.2,5.5-0.3c0.9,0,0.9,1.4,0,1.4l-6.2,0.3c-0.9,0-1.9,0.2-2.8,0.1c-0.2,0.3-0.4,0.6-0.6,0.9
			c-0.5,0.7-0.7,1.4-0.7,2.2c0,0.9-1.3,0.9-1.4,0C1825,1258.5,1825,1257.9,1825.2,1257.3z"/>
		<ellipse class="st3" cx="1814.2" cy="1209.5" rx="2" ry="1.8"/>
		<path class="st2" d="M1825.9,1259.8c-0.3,1.7,0,3.4,0.8,4.9c0.1,0.3,0.4,0.4,0.6,0.3c0.2,0.2,0.4,0.5,0.6,0.7c0,0,0,0,0.1,0.1
			c-0.1,0.3,0.1,0.7,0.5,0.8c0.9,0.2,1.9,0.3,2.8,0.4c0.1,0,0.2,0,0.3-0.1c0.1,0.1,0.3,0.1,0.5,0.1c2.2-0.4,6.3-2.4,5.9-5.2
			c0.1-0.3,0.1-0.6,0.1-0.9c0.3-0.2,0.6-0.4,0.6-0.9c0.2-1.3-0.1-2.5-0.6-3.6c-0.1-0.3-0.2-0.6-0.5-0.8c0,0,0-0.1-0.1-0.1
			c-0.1-0.4-0.3-0.7-0.7-0.9c-0.1,0-0.1,0-0.2-0.1c-0.1,0-0.3-0.1-0.4-0.1c-0.1-0.1-0.2-0.2-0.4-0.3c-0.6-0.2-1.3,0-1.9,0
			c-0.9,0.1-1.7,0.1-2.6,0c-0.9,0-1.7-0.2-2.6-0.3c-0.5,0-0.9,0.1-1.2,0.4c0,0-0.1,0-0.1,0c-0.2,0-0.4,0.1-0.5,0.2c0,0,0,0-0.1,0
			c-0.8-0.5-1.5,0.7-0.7,1.2c0.1,0,0.1,0.1,0.2,0.1c-0.4,0.6-0.6,1.2-0.5,1.7c-0.2,0.4-0.4,0.8-0.6,1.1
			C1825,1259.2,1825.4,1259.7,1825.9,1259.8z M1827.3,1259.3c0,0,0.1-0.1,0.1-0.1c0.2-0.4,0.4-0.8,0.5-1.2c0.2-0.2,0.6-0.3,0.9-0.5
			c0.5-0.3,1-0.7,1.4-1.1c0.1-0.1,0.1-0.2,0.2-0.3c0.5,0,0.9,0,1.2,0c1,0,2.2,0.1,2.9,0.8c0.2,0.2,0.5,0.4,0.8,0.6
			c0.3,0.2,0.8,0.3,0.9,0.7c0.1,0.3,0.2,0.4,0.4,0.5c0,0.4,0,0.7,0,1.1c0,0.2,0,0.4,0.1,0.6c0,0,0,0.1,0,0.1c0,0.3,0,0.6-0.1,0.8
			c-0.1,0.2-0.1,0.3-0.2,0.6c0,0.2,0,0.3,0.1,0.4c-0.2,0.8-1.3,1.6-1.9,2c-0.9,0.6-1.9,0.9-2.9,1.1c0,0-0.1,0-0.1,0
			c-0.1-0.1-0.2-0.1-0.4-0.1c-0.1,0-0.1,0-0.2,0c-0.4-0.4-0.9-0.6-1.5-0.8c-0.6-0.3-1.1-0.7-1.6-1.2c-0.5-1.2-0.7-2.6-0.7-3.9
			C1827.3,1259.5,1827.3,1259.4,1827.3,1259.3z"/>
		<path class="st2" d="M1824.8,1258.9c0.4-1.2,0.7-2.5,1.4-3.6c-0.2,0-0.3,0-0.5-0.1c-0.9-0.3-0.5-1.6,0.4-1.4
			c0.4,0.1,0.7,0.1,1,0.3c0,0,0.1,0,0.1,0.1c0.3-0.2,0.7-0.1,0.9,0.2c0.3,0,0.7,0.1,0.8,0.5c0.1,0.3-0.1,0.8-0.5,0.9
			c-0.3,0-0.6,0.1-0.8,0c-0.7,0.9-1,2.5-1.3,3.4C1825.8,1260.1,1824.5,1259.7,1824.8,1258.9z"/>
		<g>
			<path class="st3" d="M1805.9,1225.1l14.4,23.1c0,0,3.3,7.3,10.5,5.8l25.4,0.2l1.5-1.9l-9.7-11c0,0-1.9-2-6.2-3.3l-6.8,15.6"/>
			<line class="st3" x1="1831.9" y1="1253.7" x2="1840.4" y2="1233"/>
			<line class="st3" x1="1842.2" y1="1233.5" x2="1845.7" y2="1225.2"/>
			<line class="st3" x1="1841" y1="1233" x2="1844.5" y2="1224.7"/>
			<path class="st4" d="M1846.1,1225.3c0,0-0.8-0.7-2.1-1c0,0,0.1-3.3-6.5-3c0,0-2-4.3,4.3-2.9c1.9,0.4,3.1,1.9,7.8-0.9
				c0,0,3.2-1.8,3.8,1.9c0,0,0.6,2.7-4.1,2.4L1846.1,1225.3z"/>
			<path class="st5" d="M1846.9,1226.2"/>
			<line class="st3" x1="1839.1" y1="1232.4" x2="1844.4" y2="1234.5"/>
			<path class="st3" d="M1877.3,1242.1c0.9,1,7.1,8.6,5.6,18.6c-0.1,0.9-1.9,11.7-12.1,16.8c-7.7,3.8-16.6,2.6-23-2
				c-6.6-4.8-8.7-12.1-9.2-14"/>
			<path class="st3" d="M1875.9,1243.3c0.8,0.9,6.3,8.2,5,17.3c-1.6,10.8-11.3,15.3-11.8,15.5c-6.9,3-14.5,1.9-20.1-2.1
				c-6.1-4.4-7.8-13.1-8.2-14.8"/>
			<path class="st3" d="M1874.5,1244.6c0.8,0.9,5.7,7.5,4.4,15.7c-0.2,1-1.7,9.7-9.9,13.7c-6.5,3.2-14,1.8-19.1-2.1
				c-5.3-4.1-6.6-11-6.9-12.6"/>
			<path class="st3" d="M1810.2,1259.4c-1.1,8.3-7.6,16.7-15.3,19.6c-8.3,3-17.8,0.7-24-5.9c-1.1-1.2-5.8-6.3-6.1-14.4
				c-0.2-8.1,4.7-13.9,5.8-15.1c-0.7,0.2,7.8-10.6,22-7.3"/>
			<path class="st3" d="M1808.2,1258.3c-1,7.5-6.8,15.6-13.8,18.1c-7.5,2.7-16.1,0.7-21.6-5.3c-1-1-5.2-5.7-5.5-13
				c-0.2-7.3,3.8-12.2,4.7-13.3c0,0,8.6-9.9,19.7-7.2"/>
			<path class="st3" d="M1791.1,1240.1c-9.8-2.4-17.5,6.3-17.5,6.3c-0.8,1-4.4,5.3-4.2,11.8c0.2,6.5,4,10.5,4.9,11.5
				c5,5.3,12.6,7.1,19.2,4.7c6.2-2.2,10.7-7.8,11.6-14.4c0,0,2.9-9.4-8-17.8"/>
			<path class="st6" d="M1797.1,1239.9c11.3,7,10.6,17.7,10.6,17.7l3.8,2.4c0,0,0.5-15.3-13.2-23.8"/>
			<polyline class="st6" points="1794.9,1234.6 1793.4,1234.3 1792,1237.9 1793.4,1238.5 			"/>
			<circle class="st7" cx="1832" cy="1260.5" r="4.5"/>
			<path class="st4" d="M1829.2,1269c1.6-2.8,4.4-7.9,3.4-9c-0.5-0.6-0.9-0.5-0.9-0.5c-0.4,0.1-0.6,0.6-0.8,0.9
				c-0.8,2-2.7,6.3-3.7,8.4c0,0.1-0.1,0.2-0.1,0.2"/>
			<path class="st4" d="M1826.2,1271.6h3.8c0.7,0,1.2-0.6,1.2-1.2l0,0c0-0.7-0.6-1.2-1.2-1.2h-3.8c-0.7,0-1.2,0.6-1.2,1.2l0,0
				C1825,1271.1,1825.5,1271.6,1826.2,1271.6z"/>
			<path class="st8" d="M1799.9,1221.9l-7.1,0.3c-1,0-1.6-0.4-1.9-0.6c-1.4-1-1.1-9.2-1.3-11c-0.1-0.1-0.6-0.9-1.1-0.8
				c-0.3,0.1-0.5,0.5-0.7,0.8c-1,2.6-1,10.4-0.4,11.6c0.8,1.5,2.5,2.5,4.4,2.4c2.4,0,4.7-0.1,7.1-0.1"/>
			<path class="st3" d="M1804.4,1216.4c0,0,0.5-5.6,5.1-6c0,0,1.6,3.1,4.3,0.9"/>
			<path class="st3" d="M1802.9,1215.1c0,0,0.6-7.8,6.2-7l0.3,2.3c0,0-0.9-4.2,4-2.7"/>
			<line class="st5" x1="1804.2" y1="1221.6" x2="1803.8" y2="1221.4"/>
			<line class="st5" x1="1802.6" y1="1220.8" x2="1801.9" y2="1220.5"/>
			<line class="st5" x1="1803.7" y1="1222.9" x2="1803.6" y2="1223.3"/>
			<line class="st5" x1="1805.6" y1="1222.1" x2="1805" y2="1221.8"/>
			<line class="st5" x1="1802.7" y1="1225.1" x2="1803.1" y2="1224.3"/>
			<line class="st5" x1="1803.4" y1="1223.6" x2="1803.7" y2="1222.8"/>
			<line class="st5" x1="1802.1" y1="1226.8" x2="1802.4" y2="1226"/>
			<line class="st5" x1="1801.4" y1="1228.4" x2="1801.8" y2="1227.5"/>
			<line class="st5" x1="1800.9" y1="1229.9" x2="1801.2" y2="1229"/>
			<line class="st5" x1="1800.2" y1="1231.5" x2="1800.5" y2="1230.6"/>
			<path class="st6" d="M1847.5,1237.6c2.4-3.6,17.2-10.2,30.3,3.2l-5.9,5.6c0,0-2.7-1-6.9-0.8c-2.3,0.1-6.2,0.8-7.9,1.5"/>
			<path class="st3" d="M1843,1234l-0.8,1.7c0,0,4.4,0.7,7.8,4.1c3.3,3.4,13,14.2,13,14.2l-2.2,3.7l-21.9,1.2
				c-0.2,3.6-2,6.6-4.7,7.8c-1.2,0.5-2.3,0.6-3.2,0.5c-0.5,0-2.4-0.3-3.9-1.9c-2-2.1-1.6-4.9-1.6-5.3c0,0-4.6-0.6-8-5.1
				c-3.4-4.4-5.9-8.8-6.8-10.9c-0.9-2.1-4.9-9.1-7.2-11.5l-1.3,2.7l-3.5-0.2l-8.9,22.1c0,0-0.8,3.3-2.7,2.6s-1.4-2.5-0.8-3.8
				c0.7-1.3,16.7-40.8,16.7-40.8l4.6,4.4l-1.6,5.7"/>
			<path class="st6" d="M1850.6,1253.8c0.1-0.5,4.2-4.9,4.2-4.9s-8-9.7-8.8-9.4c-6.5,2.7-8.2,14.3-8.2,14.1"/>
			<line class="st3" x1="1836.6" y1="1265" x2="1858.1" y2="1258.3"/>
			<path class="st3" d="M1858.1,1258.3c-0.6,0,3.9,4.4,5.7,0.3c0.4-0.9,0.5-2.9-0.6-4.2"/>
			<path class="st9" d="M1876.2,1241.7c0,0-12.7-11.5-26.6-2.9"/>
			<path class="st9" d="M1846.4,1241.1c0,0-6.6,5.5-7.1,12.6"/>
			<polyline class="st3" points="1860.2,1251.3 1859.4,1252.6 1860.9,1254.4 1862.2,1254.6 			"/>
			<polyline class="st9" points="1867.5,1245.8 1863.6,1252.2 1863,1253.2 			"/>
			<line class="st9" x1="1876.3" y1="1248.2" x2="1863.9" y2="1255.3"/>
			<line class="st9" x1="1878.7" y1="1257.2" x2="1864.2" y2="1257.6"/>
			<line class="st9" x1="1860.2" y1="1250.5" x2="1860.7" y2="1246.6"/>
			<line class="st9" x1="1851.8" y1="1272.6" x2="1860.1" y2="1260.6"/>
			<line class="st9" x1="1860.9" y1="1275.4" x2="1861.1" y2="1260.8"/>
			<line class="st9" x1="1862.5" y1="1260.5" x2="1869.8" y2="1272.9"/>
			<line class="st9" x1="1864.1" y1="1258.9" x2="1876.1" y2="1266.2"/>
			<line class="st9" x1="1857.8" y1="1259.6" x2="1845.6" y2="1266.3"/>
			<line class="st9" x1="1787.5" y1="1240" x2="1787.7" y2="1252.1"/>
			<line class="st9" x1="1779" y1="1242.7" x2="1785.8" y2="1254.7"/>
			<line class="st9" x1="1772.1" y1="1248.9" x2="1784.3" y2="1255.5"/>
			<line class="st9" x1="1769.7" y1="1257.2" x2="1784.2" y2="1257.5"/>
			<line class="st9" x1="1772.4" y1="1266.6" x2="1784.5" y2="1259.4"/>
			<line class="st9" x1="1779.1" y1="1272.8" x2="1786" y2="1260.7"/>
			<line class="st9" x1="1787.9" y1="1274.7" x2="1787.9" y2="1261.1"/>
			<line class="st9" x1="1796.4" y1="1272.5" x2="1789.5" y2="1260.6"/>
			<line class="st9" x1="1803" y1="1266" x2="1790.7" y2="1259.1"/>
			<line class="st9" x1="1805.1" y1="1257.4" x2="1791.5" y2="1257.4"/>
			<line class="st9" x1="1790.8" y1="1255.3" x2="1802.8" y2="1248.4"/>
			<path class="st3" d="M1786.8,1253.7c0.2,0.1-2.5,0.4-2.7,3.8c-0.2,4.9,7.7,4.8,6.7-1.8"/>
			<path class="st10" d="M1857.2,1251.9"/>
		</g>
	</g>
	<path d="M1838.5,1261.2c0.2-0.8,0.5-1.5,0.8-2.2c0.2-0.5,1-0.4,1.2,0c0.7,1.4,0.8,3,1.3,4.5c0.3,0.8,0.6,1.6,1,2.4
		c0.1,0.1,0.3,0.2,0.3,0.4c0,0.1,0.1,0.3,0.1,0.4c0.2,0.4,0.5,0.8,0.8,1.2c0.2,0.3,0.1,0.5,0,0.7c0.3,0.5,0.7,1,1.3,1.4
		c0.3,0.3,0.4,0.7,0.2,1c0.1,0.1,0.2,0.1,0.3,0.2c0.1,0.1,0.3,0.1,0.4,0.2c0.4,0.2,0.4,0.5,0.3,0.8c1.4,1.4,2.9,2.6,4.8,3.2
		c0,0,0.1,0,0.1,0c0,0,0,0,0,0c0,0,0,0,0,0c0.1,0,0.1,0,0.2,0.1c0.2,0.1,0.3,0.3,0.3,0.5c0,0,0.1,0,0.1,0c0.4,0,0.7,0.1,1.1,0.2
		c0.2,0.1,0.3,0.3,0.3,0.5c1,0.3,2,0.5,3,0.5c0.3,0,0.5,0.2,0.6,0.5c0.3,0,0.6,0,0.9,0c0.3,0,0.5,0.1,0.6,0.3c1.2,0,2.3-0.1,3.5-0.1
		c0.2,0,0.4,0.1,0.5,0.2c0.2,0,0.5-0.1,0.7-0.1c0.1,0,0.2,0,0.4,0c0.1,0,0.2,0,0.2,0c0.1-0.2,0.3-0.4,0.6-0.4
		c1.7-0.1,3.3-0.7,4.8-1.7c0.3-0.2,0.6-0.1,0.8,0.1c0.2-0.2,0.4-0.4,0.6-0.6c0.2-0.2,0.5-0.3,0.8-0.1c0.1-0.1,0.2-0.2,0.3-0.3
		c0.3-0.2,0.6-0.4,0.9-0.5c0.4-0.5,0.9-1,1.3-1.4c0.2-0.2,0.3-0.2,0.5-0.2c0,0,0-0.1,0.1-0.2c0.1-0.4,0.5-0.5,0.8-0.5
		c0.3-0.4,0.7-0.8,1-1.3c0.2-0.4,0.4-0.7,0.6-1.1c0.1-0.2,0.3-0.3,0.5-0.3c0.3-0.5,0.7-1,1.1-1.4c0.1-0.1,0.2-0.1,0.3-0.2
		c0.4-0.7,0.7-1.3,0.9-2.1c0.1-0.2,0.1-0.3,0.3-0.4c0.5-1.5,1-3.1,1.4-4.6c-0.1-0.2-0.2-0.4-0.2-0.6c0.4-1.6,0.4-3.3,0.2-5
		c0-0.1-0.1-0.1-0.1-0.2c-0.2-0.6-0.3-1.3-0.4-2c-0.3-0.4-0.3-0.9-0.4-1.4c-0.1-0.4-0.2-0.8-0.3-1.1c-0.2,0-0.4-0.1-0.5-0.3
		c-0.4-0.8-0.6-1.6-0.7-2.4c-0.1,0-0.1-0.1-0.1-0.1c-0.6-0.7-0.9-1.4-1-2.2c0,0,0,0,0,0c0,0,0,0,0,0c0,0,0,0,0,0
		c-0.4-0.4-0.9-0.8-1-1.4c0,0,0,0,0,0c-0.8,0-0.9-1-0.3-1.3c0.2-0.5,1.1-0.6,1.4,0.1c0.1,0.2,0.2,0.5,0.3,0.7
		c0.3,0.4,0.6,0.8,0.8,1.1c0,0,0.1,0.1,0.1,0.1c0,0,0,0,0,0c0.3,0.3,0.5,0.6,0.6,0.9c0.1,0.1,0.3,0.1,0.3,0.3
		c0.4,0.7,0.9,1.4,1.3,2.1c0.2,0.3,0.1,0.7-0.1,0.9c0.2,0.5,0.5,1,0.6,1.6c0.1,0.3,0.2,0.6,0.2,0.9c0,0.1,0,0.3,0,0.5c0,0,0,0,0,0
		c0,0,0,0,0.1,0.1c0.3,0.2,0.4,0.5,0.3,0.8c0,0,0,0.1,0,0.1c0,0.1,0,0.2,0,0.3c0.1,0.1,0.1,0.2,0.2,0.3c0.1,0.3,0.1,0.6,0.2,0.8
		c0.3,1.6,0.3,3.1,0.1,4.7c0.2,0.1,0.4,0.4,0.3,0.7c-0.5,2.2-1.2,4.4-1.9,6.6c-0.1,0.2-0.1,0.3-0.3,0.4c-0.6,1.6-1.7,2.9-2.2,4.5
		c-0.2,0.5-0.7,0.6-1.1,0.4c-0.1,0.3-0.3,0.5-0.4,0.8c-0.1,0.2-0.2,0.3-0.4,0.3c-0.5,0.6-0.9,1.1-1.4,1.7c-0.1,0.1-0.3,0.2-0.5,0.2
		c-0.2,0.2-0.4,0.3-0.6,0.5c-0.1,0.1-0.2,0.1-0.2,0.1c0,0.1,0,0.1-0.1,0.2c-0.3,0.5-0.6,0.7-1.2,0.9c-0.1,0-0.2,0-0.3,0
		c-0.2,0.2-0.3,0.4-0.5,0.5c-0.4,0.4-0.9,0.7-1.4,0.8c0,0,0,0,0,0c-0.4,0.3-0.8,0.6-1.3,0.9c-0.3,0.2-0.7,0.1-0.9-0.2
		c-0.5,0.2-1.1,0.4-1.7,0.6c-0.1,0.2-0.2,0.3-0.5,0.3c-1.2,0.2-2.3,0.4-3.5,0.6c-0.1,0-0.3,0-0.4,0c-0.3,0-0.5,0.1-0.8,0.1
		c-0.4,0.1-0.9,0.1-1.3,0c-0.2,0-0.3-0.1-0.4-0.2c-0.8,0-1.5,0.1-2.3,0.1c-0.3,0-0.5-0.1-0.6-0.3c-0.7,0-1.4-0.1-2.1-0.2
		c-0.2,0-0.4-0.2-0.5-0.5c-1-0.2-2-0.5-2.9-1c-0.1-0.1-0.2-0.1-0.3-0.2c-0.3-0.1-0.7-0.3-1-0.4c-0.2-0.1-0.3-0.3-0.3-0.5
		c-2.2-1-3.9-2.7-5.6-4.4c-0.1-0.1-0.2-0.3-0.2-0.4c-0.1-0.1-0.1-0.2-0.2-0.3c-0.2,0-0.4-0.2-0.5-0.5c-0.1-0.2-0.1-0.3-0.2-0.5
		c-0.2,0-0.3-0.1-0.4-0.3c-0.1-0.1-0.1-0.3-0.2-0.4c-1.2-0.6-1.6-2.4-2-3.5c-0.1-0.1-0.1-0.3,0-0.4c-0.1-0.1-0.2-0.3-0.3-0.4
		c-0.3-0.2-0.3-0.5-0.2-0.7c-0.3-0.5-0.5-0.9-0.8-1.4c-0.1-0.3-0.1-0.6,0.1-0.7c-0.1-0.2-0.3-0.3-0.5-0.5
		C1838.5,1261.8,1838.5,1261.5,1838.5,1261.2z"/>
	<path d="M1765.2,1258c-0.2-1.4-0.1-2.8,0.2-4.2c0.3-1.4,1-2.6,1.6-3.9c0.1-0.8,0.4-1.6,0.8-2.3c0.1-0.2,0.3-0.3,0.5-0.3
		c0.1-0.4,0.2-0.8,0.3-1.2c0.1-0.4,0.5-0.6,0.8-0.5c0.3-0.5,0.5-0.9,0.8-1.4c0.4-0.8,0.9-1.6,1.5-2.3c0.2-0.2,0.5-0.3,0.7-0.2
		c0.5-1,1.4-1.6,2.4-2c0.1,0,0.2,0,0.3,0c0,0,0,0,0,0c0.6-0.5,1.2-0.9,1.9-1.2c0.6-0.6,1.4-1,2.2-1.1c0.5-0.2,0.9-0.4,1.4-0.6
		c0.1-0.1,0.2-0.3,0.4-0.3c0.6-0.2,1.3-0.3,1.9-0.4c0.1-0.1,0.2-0.2,0.4-0.3c2.9-0.5,5.8-0.4,8.6,0.4c0.9,0.2,0.5,1.6-0.4,1.4
		c-1.9-0.5-3.8-0.7-5.7-0.6c-0.1,0.2-0.3,0.4-0.6,0.4c-0.6,0-1.1,0-1.6,0.1c-0.1,0.3-0.3,0.6-0.7,0.6c-0.7,0-1.4,0-2,0.2
		c0,0.2-0.1,0.3-0.3,0.4c-0.4,0.2-0.8,0.3-1.2,0.3c-0.1,0.2-0.2,0.4-0.5,0.5c-0.4,0.1-0.7,0.2-1.1,0.3c0,0.2-0.1,0.4-0.3,0.5
		c-0.8,0.5-1.6,1-2.4,1.5c-0.3,0.7-1,1-1.6,1.5c-0.9,0.6-1.7,1.5-2.4,2.4c-0.1,0.1-0.1,0.1-0.2,0.2c-1.7,2.9-2.9,6.1-3.6,9.3
		c0.2,0.1,0.3,0.3,0.3,0.5c0,1.9,0,3.9,0,5.8c0,0.1,0,0.2-0.1,0.3c0,0,0,0,0,0c0.8,1.9,1.7,3.8,2.3,5.8c0.1,0.1,0.2,0.1,0.3,0.2
		c0.8,1.1,1.6,2.2,2.4,3.3c0.2-0.1,0.5,0,0.7,0.2c1.6,2,3.7,3.6,6,4.7c0,0,0.1,0,0.1,0c0.9,0.2,1.8,0.6,2.6,1c0,0,0.1,0,0.1,0.1
		c2.3,0.6,4.9,0.5,7.3,0.4c0.3,0,0.5,0.1,0.6,0.3c1.5-0.2,3.1-0.6,4.5-1.1c0-0.2,0.2-0.3,0.3-0.4c0.3-0.2,0.7-0.4,1-0.5
		c0.2,0,0.3,0,0.5,0c0,0,0.1,0,0.1-0.1c0.5-0.3,1-0.6,1.5-0.9c0.5-0.3,1.1-0.5,1.4-1c0.1-0.2,0.3-0.3,0.4-0.3
		c-0.1-0.4,0.1-0.9,0.7-0.9c0.2,0,0.3,0.1,0.4,0.2c0.2-0.2,0.3-0.4,0.5-0.6c0.7-0.8,1.4-1.6,2.1-2.4c0.1-0.1,0.1-0.1,0.2-0.1
		c0.4-0.6,0.7-1.2,1-1.8c0.1-0.2,0.3-0.4,0.5-0.4c0.3-0.6,0.5-1.2,0.8-1.8c0.1-0.2,0.1-0.3,0.2-0.5c0.1-0.2,0.2-0.3,0.4-0.3
		c0.2-1,0.5-1.9,0.9-2.8c0-0.3,0-0.7,0.1-1c0.2-0.6,0.8-1.3,0.6-1.9c-0.1-0.5,0.3-1,0.9-0.9c0.3,0.1,0.5,0.2,0.7,0.4
		c0.2,0.2,0.2,0.5,0.1,0.8c0.1,0.5,0,0.9-0.1,1.5c-0.3,1-0.6,2-0.9,3c0,0.1-0.1,0.2-0.1,0.2c0,0.1,0,0.3,0,0.4c-0.2,1-0.4,2-0.8,2.9
		c-0.3,0.7-0.7,1.4-1.5,1.4c-0.2,0.4-0.5,0.7-0.8,1.1c-1,2.5-2.9,4.3-5.2,5.6c0,0.2-0.2,0.4-0.5,0.5c-0.2,0-0.3,0.1-0.4,0.1
		c0,0.2-0.1,0.3-0.3,0.4c-1.3,0.8-2.7,1.4-4.2,1.8c0,0.1-0.1,0.1-0.2,0.1c-1.3,0.9-2.9,1.2-4.5,1.4c-1.8,0.1-3.5,0.1-5.3,0.1
		c-0.2,0.2-0.4,0.3-0.7,0.2c-1.4-0.4-2.8-1-4.1-1.6c-0.3,0.2-0.6,0.2-0.8-0.1c-0.1-0.1-0.2-0.2-0.4-0.4c-0.2,0.1-0.4,0.1-0.6,0
		c-1.5-0.8-3-1.6-4.4-2.6c-1.1-0.8-2.6-1.6-3.1-2.9c-0.1-0.1-0.1-0.3,0-0.4l-0.5-0.5c-0.1,0-0.1-0.1-0.1-0.1c-0.1,0-0.1-0.1-0.2-0.1
		c-1.7-1.4-2.7-3.4-3.4-5.5c-0.8-2.4-1.3-5-1.5-7.6C1764.9,1258.3,1765,1258.1,1765.2,1258z"/>
</g>
</svg>
