<?xml version="1.0" encoding="utf-8"?>
<!-- Generator: Adobe Illustrator 22.0.1, SVG Export Plug-In . SVG Version: 6.00 Build 0)  -->
<svg version="1.1" id="Capa_1" xmlns="http://www.w3.org/2000/svg" xmlns:xlink="http://www.w3.org/1999/xlink" x="0px" y="0px"
	 viewBox="0 0 525.2 525.2" style="enable-background:new 0 0 525.2 525.2;" xml:space="preserve">
<style type="text/css">
	.st0{fill:#4CAF50;}
	.st1{fill:#FFFFFF;}
</style>
<g>
	<path class="st0" d="M426.9,0H92.7C66.4,0,45.2,21.5,45.2,47.7L45,356.3c0,16.5,8.3,31,21,39.6L259.8,525l193.5-129
		c12.7-8.6,21-23.2,21-39.6l0.3-308.6C474.6,21.5,453.1,0,426.9,0z"/>
</g>
<g>
	<g id="directions-bike">
		<path class="st1" d="M305.5,134.5c11.4,0,20.5-9.1,20.5-20.6s-9.1-20.6-20.5-20.6s-20.5,9.1-20.5,20.6S294,134.5,305.5,134.5z
			 M339.7,216.7c-32,0-57.1,25.1-57.1,57.1s25.1,57.1,57.1,57.1s57.1-25.1,57.1-57.1S371.7,216.7,339.7,216.7z M339.7,313.7
			c-21.7,0-40-18.3-40-40s18.3-40,40-40s40,18.3,40,40C379.7,295.5,361.4,313.7,339.7,313.7z M291.8,193.9h48v-20.6h-36.5
			l-21.7-37.7c-3.4-5.7-9.1-9.1-17.1-9.1c-5.7,0-10.3,2.3-13.7,5.7l-42.2,42.2c-3.4,3.4-5.7,8-5.7,13.7c0,6.9,3.4,13.7,9.1,17.1
			l38.8,22.8v57.1h20.5V211l-25.1-19.4l26.3-26.3L291.8,193.9z M179.9,216.7c-32,0-57.1,25.1-57.1,57.1s25.1,57.1,57.1,57.1
			s57.1-25.1,57.1-57.1S211.8,216.7,179.9,216.7z M179.9,313.7c-21.7,0-40-18.3-40-40s18.3-40,40-40s40,18.3,40,40
			C219.8,295.5,201.6,313.7,179.9,313.7z"/>
	</g>
</g>
</svg>
