<?xml version="1.0" encoding="utf-8"?>
<!-- Generator: Adobe Illustrator 22.0.1, SVG Export Plug-In . SVG Version: 6.00 Build 0)  -->
<svg version="1.1" id="Capa_1" xmlns="http://www.w3.org/2000/svg" xmlns:xlink="http://www.w3.org/1999/xlink" x="0px" y="0px"
	 viewBox="0 0 525.2 525.2" style="enable-background:new 0 0 525.2 525.2;" xml:space="preserve">
<style type="text/css">
	.st0{fill:#969696;}
	.st1{fill:#FFFFFF;}
</style>
<g>
	<path class="st0" d="M429.7,0H95.4C69.2,0,48,21.5,48,47.7l-0.2,308.6c0,16.5,8.3,31,21,39.6L262.6,525l193.5-129
		c12.7-8.6,21-23.2,21-39.6l0.3-308.6C477.4,21.5,455.9,0,429.7,0z M458,365H65V51h393V365z"/>
	<rect x="65" y="51" class="st0" width="393" height="314"/>
</g>
<g>
	<path class="st1" d="M391.8,53H138.5c-19.9,0-35.9,16.3-35.9,36.2L102.4,323c0,12.5,6.3,23.5,15.9,30l146.9,97.8l146.7-97.8
		c9.6-6.5,15.9-17.6,15.9-30L428,89.2C428,69.3,411.7,53,391.8,53z M413.3,329.6H115.4v-238h297.9V329.6z"/>
	<rect x="115.4" y="91.7" class="st1" width="297.9" height="238"/>
</g>
<g>
	<g id="directions-bike">
		<path d="M299,147.9c9.4,0,17-7.5,17-17s-7.5-16.9-17-16.9c-9.4,0-16.9,7.5-16.9,16.9S289.6,147.9,299,147.9z M327.3,215.7
			c-26.4,0-47.1,20.7-47.1,47.1s20.7,47.1,47.1,47.1s47.1-20.7,47.1-47.1S353.6,215.7,327.3,215.7z M327.3,295.7
			c-17.9,0-33-15.1-33-33s15.1-33,33-33s33,15.1,33,33C360.2,280.7,345.2,295.7,327.3,295.7z M287.7,196.9h39.6V180h-30.1
			l-17.9-31.1c-2.8-4.7-7.5-7.5-14.1-7.5c-4.7,0-8.5,1.9-11.3,4.7L219,180.9c-2.8,2.8-4.7,6.6-4.7,11.3c0,5.6,2.8,11.3,7.5,14.1
			l32,18.8v47.1h16.9V211L250,195l21.7-21.7L287.7,196.9z M195.4,215.7c-26.4,0-47.1,20.7-47.1,47.1s20.7,47.1,47.1,47.1
			s47.1-20.7,47.1-47.1S221.8,215.7,195.4,215.7z M195.4,295.7c-17.9,0-33-15.1-33-33s15.1-33,33-33s33,15.1,33,33
			C228.4,280.7,213.3,295.7,195.4,295.7z"/>
	</g>
</g>
</svg>
